<svg xmlns="http://www.w3.org/2000/svg" xmlns:xlink="http://www.w3.org/1999/xlink" width="500" zoomAndPan="magnify" viewBox="0 0 375 374.999991" height="500" preserveAspectRatio="xMidYMid meet" version="1.0"><defs><g/><clipPath id="80941405fd"><path d="M 43.5 140 L 331.5 140 L 331.5 214 L 43.5 214 Z M 43.5 140 " clip-rule="nonzero"/></clipPath><clipPath id="b92e2b46ee"><path d="M 267 82.25 L 317 82.25 L 317 132 L 267 132 Z M 267 82.25 " clip-rule="nonzero"/></clipPath></defs><path fill="#00ff00" d="M 84.726562 168.84375 C 84.636719 170.851562 84.582031 172.875 84.609375 174.894531 C 84.175781 175.71875 83.773438 176.558594 83.410156 177.394531 C 83.726562 174.507812 84.175781 171.648438 84.726562 168.84375 Z M 125.984375 105.535156 C 124.148438 107.582031 122.488281 109.867188 120.972656 112.351562 C 117.523438 114.082031 114.34375 115.960938 111.457031 117.980469 C 115.890625 113.402344 120.757812 109.214844 125.984375 105.535156 Z M 258.023438 117.96875 C 255.136719 115.945312 251.945312 114.054688 248.492188 112.335938 C 246.976562 109.824219 245.285156 107.527344 243.4375 105.460938 C 248.175781 108.796875 252.667969 112.550781 256.839844 116.726562 C 257.242188 117.117188 257.632812 117.546875 258.023438 117.96875 Z M 284.871094 174.882812 C 284.914062 172.832031 284.855469 170.808594 284.753906 168.789062 C 285.304688 171.589844 285.722656 174.40625 286.039062 177.265625 C 285.695312 176.46875 285.304688 175.660156 284.871094 174.882812 Z M 284.464844 210.148438 C 284.25 206.292969 283.167969 202.539062 281.261719 198.882812 C 283.167969 192.167969 284.335938 185.335938 284.726562 178.507812 C 285.75 180.960938 286.371094 183.460938 286.648438 185.988281 C 286.660156 186.925781 286.703125 187.878906 286.703125 188.832031 C 286.703125 196.082031 285.9375 203.214844 284.464844 210.148438 Z M 254.542969 263.121094 C 254.789062 262.757812 255.003906 262.382812 255.222656 262.007812 C 256.03125 261.402344 256.8125 260.765625 257.605469 260.128906 C 257.34375 260.390625 257.097656 260.679688 256.839844 260.9375 C 256.089844 261.691406 255.308594 262.398438 254.542969 263.121094 Z M 111.816406 260.074219 C 112.613281 260.722656 113.40625 261.371094 114.214844 261.980469 C 114.429688 262.355469 114.664062 262.730469 114.90625 263.105469 C 114.140625 262.382812 113.375 261.675781 112.625 260.9375 C 112.351562 260.648438 112.089844 260.363281 111.816406 260.074219 Z M 94.847656 164.800781 C 94.933594 171.445312 95.773438 178.261719 97.417969 185.222656 C 97.550781 185.742188 97.679688 186.261719 97.808594 186.78125 C 96.882812 187.589844 96.003906 188.414062 95.167969 189.25 C 92.625 191.792969 90.53125 194.421875 88.914062 197.09375 C 87.078125 190.234375 86.039062 183.273438 85.808594 176.296875 C 87.871094 172.253906 90.921875 168.398438 94.847656 164.800781 Z M 89.214844 153.132812 C 91.195312 149.320312 94.070312 145.710938 97.722656 142.359375 C 95.886719 148.828125 94.921875 155.601562 94.832031 162.578125 C 93.835938 163.445312 92.882812 164.324219 91.988281 165.207031 C 89.476562 167.734375 87.410156 170.304688 85.75 172.945312 C 85.765625 168.960938 86.054688 164.988281 86.601562 161.046875 C 87.367188 158.359375 88.25 155.71875 89.214844 153.132812 Z M 104.769531 125.636719 C 104.078125 126.835938 103.414062 128.0625 102.792969 129.304688 C 102.011719 129.984375 101.261719 130.648438 100.554688 131.355469 C 101.894531 129.390625 103.296875 127.46875 104.769531 125.636719 Z M 117.160156 119.902344 C 112.582031 122.226562 108.511719 124.769531 105 127.5 C 106.113281 125.460938 107.339844 123.46875 108.65625 121.519531 C 111.917969 118.847656 115.703125 116.378906 119.90625 114.167969 C 118.90625 115.988281 117.984375 117.894531 117.160156 119.902344 Z M 139.011719 106.542969 C 138.144531 108.347656 137.363281 110.285156 136.671875 112.320312 C 133.753906 113.171875 130.921875 114.113281 128.179688 115.121094 C 124.828125 116.378906 121.695312 117.707031 118.75 119.136719 C 119.660156 117.042969 120.667969 115.066406 121.78125 113.203125 C 126.964844 110.632812 132.757812 108.394531 139.011719 106.542969 Z M 131.082031 102.140625 C 132.570312 101.214844 134.070312 100.335938 135.601562 99.496094 C 139.023438 97.921875 142.738281 96.523438 146.664062 95.324219 C 143.949219 98.097656 141.625 101.375 139.675781 105.171875 C 133.636719 106.917969 127.992188 109.011719 122.894531 111.410156 C 125.246094 107.828125 127.992188 104.722656 131.082031 102.140625 Z M 148.441406 93.617188 C 148.179688 93.675781 147.921875 93.75 147.660156 93.835938 C 147.980469 93.707031 148.296875 93.589844 148.613281 93.472656 C 148.554688 93.519531 148.5 93.5625 148.441406 93.617188 Z M 165.902344 90.039062 C 160.671875 90.714844 155.632812 91.699219 150.851562 92.953125 C 150.882812 92.851562 150.894531 92.738281 150.882812 92.636719 C 156.167969 90.773438 161.640625 89.328125 167.289062 88.363281 C 166.796875 88.867188 166.335938 89.429688 165.902344 90.039062 Z M 218.628906 92.925781 C 213.847656 91.667969 208.808594 90.6875 203.566406 90.007812 C 203.144531 89.417969 202.699219 88.867188 202.222656 88.363281 C 207.808594 89.328125 213.296875 90.730469 218.613281 92.59375 C 218.582031 92.710938 218.582031 92.808594 218.628906 92.925781 Z M 220.980469 93.5625 C 220.9375 93.519531 220.878906 93.472656 220.824219 93.417969 C 221.140625 93.546875 221.472656 93.664062 221.789062 93.792969 C 221.53125 93.71875 221.253906 93.632812 220.980469 93.5625 Z M 250.730469 119.109375 C 247.785156 117.691406 244.652344 116.351562 241.316406 115.109375 C 238.554688 114.097656 235.726562 113.160156 232.824219 112.304688 C 232.128906 110.269531 231.335938 108.347656 230.46875 106.515625 C 236.722656 108.378906 242.511719 110.601562 247.683594 113.1875 C 248.808594 115.050781 249.820312 117.027344 250.730469 119.109375 Z M 260.796875 121.476562 C 262.125 123.425781 263.351562 125.417969 264.464844 127.457031 C 260.957031 124.742188 256.898438 122.199219 252.320312 119.886719 C 251.496094 117.878906 250.570312 115.960938 249.5625 114.140625 C 253.761719 116.363281 257.53125 118.804688 260.796875 121.476562 Z M 266.660156 129.261719 C 266.039062 127.988281 265.359375 126.746094 264.652344 125.507812 C 266.167969 127.425781 267.628906 129.375 269 131.371094 C 268.25 130.660156 267.46875 129.941406 266.660156 129.261719 Z M 277.519531 165.207031 C 276.609375 164.308594 275.65625 163.445312 274.660156 162.5625 C 274.558594 155.515625 273.578125 148.683594 271.714844 142.15625 C 275.367188 145.535156 278.242188 149.175781 280.25 153.03125 C 281.246094 155.6875 282.125 158.390625 282.890625 161.132812 C 283.441406 165.046875 283.714844 168.976562 283.730469 172.933594 C 282.082031 170.289062 280.019531 167.71875 277.519531 165.207031 Z M 273.996094 189.25 C 273.246094 188.484375 272.4375 187.75 271.613281 187.027344 C 271.773438 186.421875 271.929688 185.8125 272.0625 185.222656 C 273.722656 178.261719 274.558594 171.445312 274.632812 164.816406 C 275.210938 165.335938 275.773438 165.871094 276.308594 166.417969 C 279.5 169.597656 281.953125 172.902344 283.6875 176.28125 C 283.457031 183.375 282.371094 190.480469 280.464844 197.46875 C 278.820312 194.652344 276.652344 191.910156 273.996094 189.25 Z M 276.261719 209.6875 C 274.703125 207.058594 272.667969 204.515625 270.199219 202.03125 C 269.359375 201.207031 268.492188 200.414062 267.585938 199.605469 C 269.027344 195.835938 270.285156 192.054688 271.308594 188.253906 C 271.945312 188.847656 272.582031 189.4375 273.203125 190.046875 C 276.105469 192.949219 278.386719 195.953125 280.046875 199.011719 C 279.007812 202.609375 277.738281 206.175781 276.261719 209.6875 Z M 283.296875 213.644531 C 282.328125 216.242188 281.273438 218.726562 280.132812 221.125 C 279.800781 217.644531 278.746094 214.234375 276.957031 210.914062 C 278.445312 207.476562 279.730469 204.011719 280.796875 200.488281 C 282.515625 204.113281 283.382812 207.835938 283.382812 211.636719 C 283.382812 212.300781 283.355469 212.980469 283.296875 213.644531 Z M 280.234375 223.476562 C 280.753906 222.464844 281.246094 221.425781 281.738281 220.371094 C 281.246094 221.859375 280.742188 223.320312 280.191406 224.792969 C 280.21875 224.34375 280.234375 223.925781 280.234375 223.476562 Z M 235.8125 271.367188 C 236.507812 269.71875 236.867188 268.042969 236.925781 266.3125 C 243.554688 262.859375 250.441406 258.425781 256.984375 252.835938 C 256.796875 255.683594 255.902344 258.5 254.371094 261.226562 C 248.621094 265.460938 242.269531 268.808594 235.8125 271.367188 Z M 225.921875 282.140625 C 225.832031 282.167969 225.746094 282.210938 225.660156 282.226562 C 227.148438 281.273438 228.519531 280.289062 229.746094 279.238281 C 231.839844 278.617188 233.921875 277.863281 235.941406 277.042969 C 232.691406 278.917969 229.355469 280.625 225.921875 282.140625 Z M 139.617188 279.191406 C 140.800781 280.234375 142.128906 281.214844 143.574219 282.140625 C 143.546875 282.140625 143.515625 282.125 143.488281 282.109375 C 140.078125 280.609375 136.730469 278.90625 133.492188 277.011719 C 135.488281 277.835938 137.539062 278.574219 139.617188 279.191406 Z M 112.496094 252.835938 C 119.039062 258.410156 125.925781 262.84375 132.554688 266.296875 C 132.597656 268.015625 132.960938 269.707031 133.636719 271.351562 C 127.199219 268.78125 120.84375 265.445312 115.09375 261.214844 C 113.566406 258.484375 112.667969 255.667969 112.496094 252.835938 Z M 89.230469 223.433594 C 89.230469 223.882812 89.257812 224.316406 89.273438 224.777344 C 88.710938 223.277344 88.191406 221.773438 87.699219 220.257812 C 88.191406 221.339844 88.695312 222.410156 89.230469 223.433594 Z M 101.894531 199.589844 C 100.984375 200.398438 100.105469 201.195312 99.28125 202.03125 C 96.796875 204.5 94.789062 207.058594 93.230469 209.65625 C 91.699219 206.03125 90.398438 202.351562 89.332031 198.625 C 91.425781 194.882812 94.402344 191.332031 98.125 188.007812 C 99.152344 191.878906 100.421875 195.75 101.894531 199.589844 Z M 114.199219 177.378906 C 115.007812 181.4375 115.992188 185.523438 117.144531 189.597656 C 111.703125 192.328125 106.878906 195.417969 102.820312 198.8125 C 101.347656 194.941406 100.089844 191.054688 99.078125 187.1875 C 103.28125 183.589844 108.367188 180.3125 114.199219 177.378906 Z M 113.59375 131.585938 C 112.410156 137.042969 111.703125 142.9375 111.570312 149.246094 C 111.542969 150.042969 111.558594 150.835938 111.558594 151.628906 C 105.652344 154.578125 100.410156 157.914062 96.003906 161.582031 C 96.191406 154.417969 97.304688 147.5 99.355469 140.902344 C 103.355469 137.507812 108.148438 134.386719 113.59375 131.585938 Z M 113.925781 130.054688 C 108.625 132.742188 103.945312 135.703125 99.988281 138.878906 C 101.042969 135.832031 102.285156 132.855469 103.730469 129.953125 C 107.371094 126.835938 111.703125 123.976562 116.597656 121.40625 C 115.558594 124.132812 114.648438 127.023438 113.925781 130.054688 Z M 134.085938 122.226562 C 129.941406 123.441406 125.957031 124.8125 122.199219 126.316406 C 119.789062 127.296875 117.476562 128.320312 115.269531 129.390625 C 116.046875 126.316406 116.988281 123.367188 118.097656 120.625 C 123.53125 117.894531 129.636719 115.527344 136.238281 113.5625 C 135.386719 116.261719 134.648438 119.152344 134.085938 122.226562 Z M 159.429688 108.609375 C 158.984375 111.324219 158.609375 114.167969 158.332031 117.101562 C 150.289062 118.214844 142.550781 119.800781 135.300781 121.867188 C 135.90625 118.761719 136.65625 115.875 137.566406 113.171875 C 144.382812 111.207031 151.71875 109.679688 159.429688 108.609375 Z M 160.816406 101.910156 C 160.371094 103.671875 159.980469 105.519531 159.617188 107.46875 C 152.09375 108.492188 144.832031 109.980469 138 111.917969 C 138.734375 109.867188 139.546875 107.929688 140.453125 106.109375 C 146.824219 104.304688 153.667969 102.890625 160.816406 101.910156 Z M 184.167969 99.179688 C 176.675781 99.191406 169.324219 99.671875 162.289062 100.566406 C 163.402344 96.738281 164.804688 93.519531 166.480469 91.105469 C 172.210938 90.355469 178.132812 89.964844 184.167969 89.9375 Z M 207.203125 100.566406 C 200.15625 99.671875 192.804688 99.191406 185.296875 99.179688 L 185.296875 89.9375 C 191.363281 89.949219 197.28125 90.339844 202.972656 91.0625 C 204.675781 93.488281 206.0625 96.710938 207.203125 100.566406 Z M 209.859375 107.453125 C 209.515625 105.519531 209.125 103.65625 208.664062 101.894531 C 215.824219 102.875 222.65625 104.292969 229.023438 106.097656 C 229.933594 107.917969 230.757812 109.867188 231.496094 111.917969 C 224.648438 109.964844 217.398438 108.480469 209.859375 107.453125 Z M 234.179688 121.824219 C 226.988281 119.785156 219.261719 118.183594 211.160156 117.070312 C 210.871094 114.140625 210.511719 111.308594 210.050781 108.609375 C 217.773438 109.664062 225.113281 111.207031 231.929688 113.160156 C 232.824219 115.859375 233.574219 118.734375 234.179688 121.824219 Z M 254.210938 129.320312 C 248.535156 126.574219 242.226562 124.175781 235.394531 122.183594 C 234.816406 119.109375 234.109375 116.25 233.242188 113.546875 C 239.855469 115.527344 245.949219 117.878906 251.378906 120.597656 C 252.492188 123.339844 253.429688 126.257812 254.210938 129.320312 Z M 255.554688 129.96875 C 254.816406 126.949219 253.921875 124.089844 252.882812 121.390625 C 257.777344 123.945312 262.097656 126.804688 265.734375 129.925781 C 267.164062 132.785156 268.421875 135.746094 269.460938 138.761719 C 265.476562 135.570312 260.796875 132.609375 255.554688 129.96875 Z M 257.9375 151.617188 C 257.9375 150.835938 257.9375 150.042969 257.921875 149.246094 C 257.777344 142.863281 257.070312 136.886719 255.859375 131.371094 C 261.289062 134.15625 266.082031 137.289062 270.066406 140.699219 C 272.148438 147.371094 273.304688 154.347656 273.492188 161.566406 C 269.070312 157.914062 263.84375 154.578125 257.9375 151.617188 Z M 252.332031 189.597656 C 253.488281 185.570312 254.457031 181.539062 255.25 177.539062 C 261.101562 180.5 266.167969 183.804688 270.34375 187.417969 C 269.347656 191.214844 268.117188 195.042969 266.675781 198.824219 C 262.601562 195.417969 257.777344 192.339844 252.332031 189.597656 Z M 261.765625 210.03125 C 257.980469 206.871094 253.503906 203.996094 248.449219 201.453125 C 249.777344 197.886719 250.960938 194.304688 252.015625 190.695312 C 257.445312 193.4375 262.226562 196.53125 266.242188 199.9375 C 264.914062 203.332031 263.425781 206.695312 261.765625 210.03125 Z M 270.933594 220.503906 C 269.445312 217.960938 267.496094 215.476562 265.085938 213.050781 C 264.320312 212.285156 263.484375 211.535156 262.644531 210.796875 C 264.320312 207.476562 265.808594 204.113281 267.152344 200.730469 C 267.917969 201.425781 268.683594 202.117188 269.390625 202.828125 C 272.03125 205.484375 274.125 208.199219 275.699219 211 C 274.285156 214.207031 272.710938 217.382812 270.933594 220.503906 Z M 212.144531 274.167969 C 212.054688 273.316406 211.824219 272.464844 211.449219 271.625 C 219.652344 268.464844 227.320312 264.605469 234.382812 260.101562 C 235.277344 261.890625 235.742188 263.742188 235.785156 265.632812 C 226.917969 270.183594 218.539062 272.925781 212.144531 274.167969 Z M 211.722656 277.53125 C 211.984375 276.824219 212.128906 276.074219 212.171875 275.324219 C 218.539062 274.082031 226.875 271.394531 235.753906 266.902344 C 235.625 268.609375 235.148438 270.296875 234.339844 271.929688 C 226.554688 274.859375 218.726562 276.695312 211.722656 277.53125 Z M 205.976562 283.945312 C 206.972656 283.324219 207.867188 282.644531 208.648438 281.9375 C 214.484375 282.328125 220.808594 281.621094 227.046875 280.003906 C 225.34375 281.242188 223.40625 282.414062 221.3125 283.46875 C 216.488281 284.636719 212.605469 284.667969 205.976562 283.945312 Z M 171.011719 287.164062 C 175.101562 288.347656 179.808594 289.027344 184.734375 289.027344 C 187.171875 289.027344 189.527344 288.871094 191.765625 288.582031 C 192.515625 289.316406 193.296875 289.921875 194.089844 290.371094 C 191 290.644531 187.882812 290.804688 184.734375 290.804688 C 177.828125 290.804688 171.027344 290.109375 164.398438 288.78125 C 166.710938 288.582031 168.847656 288.046875 171.011719 287.164062 Z M 160.875 281.9375 C 161.65625 282.644531 162.550781 283.324219 163.546875 283.945312 C 156.875 284.667969 152.988281 284.636719 148.136719 283.453125 C 146.042969 282.398438 144.121094 281.242188 142.417969 279.988281 C 148.671875 281.621094 155.027344 282.328125 160.875 281.9375 Z M 157.308594 275.324219 C 157.351562 276.058594 157.496094 276.808594 157.757812 277.53125 C 150.75 276.679688 142.910156 274.859375 135.125 271.914062 C 134.316406 270.28125 133.839844 268.609375 133.726562 266.902344 C 142.59375 271.378906 150.925781 274.082031 157.308594 275.324219 Z M 135.082031 260.074219 C 142.160156 264.605469 149.828125 268.464844 158.03125 271.613281 C 157.640625 272.449219 157.410156 273.300781 157.324219 274.167969 C 150.925781 272.910156 142.5625 270.167969 133.683594 265.617188 C 133.726562 263.710938 134.214844 261.863281 135.082031 260.074219 Z M 97.910156 221.628906 C 96.25 224.75 95.28125 227.953125 95.023438 231.246094 C 93.359375 228.675781 91.800781 226.019531 90.371094 223.1875 C 90.414062 219.433594 91.351562 215.78125 93.101562 212.269531 C 94.53125 215.449219 96.132812 218.566406 97.910156 221.628906 Z M 106.847656 210.785156 C 105.984375 211.535156 105.160156 212.285156 104.378906 213.050781 C 101.984375 215.460938 100.03125 217.945312 98.546875 220.488281 C 96.785156 217.367188 95.195312 214.207031 93.792969 211 C 95.816406 207.375 98.703125 203.9375 102.328125 200.730469 C 103.671875 204.097656 105.175781 207.460938 106.847656 210.785156 Z M 121.046875 201.441406 C 115.976562 203.980469 111.5 206.855469 107.714844 210.019531 C 106.054688 206.695312 104.566406 203.316406 103.238281 199.9375 C 107.210938 196.585938 112.003906 193.496094 117.476562 190.738281 C 118.53125 194.320312 119.714844 197.902344 121.046875 201.441406 Z M 137.132812 183.15625 C 137.914062 186.808594 138.792969 190.507812 139.777344 194.21875 C 133.335938 196.082031 127.398438 198.335938 122.054688 200.933594 C 120.742188 197.382812 119.558594 193.816406 118.503906 190.234375 C 124.078125 187.519531 130.347656 185.136719 137.132812 183.15625 Z M 134.589844 169.496094 C 135.226562 173.597656 135.976562 177.769531 136.875 182 C 130.101562 183.964844 123.816406 186.332031 118.1875 189.09375 C 117.03125 185.003906 116.046875 180.917969 115.238281 176.859375 C 121.046875 174.03125 127.542969 171.546875 134.589844 169.496094 Z M 132.410156 145.390625 C 132.554688 152.613281 133.234375 160.308594 134.417969 168.324219 C 127.386719 170.363281 120.871094 172.816406 115.007812 175.675781 C 113.535156 167.933594 112.757812 160.308594 112.667969 152.988281 C 118.574219 150.070312 125.203125 147.53125 132.410156 145.390625 Z M 132.800781 131.746094 C 132.46875 135.515625 132.339844 139.484375 132.367188 143.601562 C 125.261719 145.679688 118.648438 148.195312 112.683594 151.066406 C 112.683594 150.476562 112.683594 149.867188 112.699219 149.277344 C 112.84375 142.707031 113.59375 136.554688 114.894531 130.921875 C 120.597656 128.105469 126.953125 125.621094 133.855469 123.542969 C 133.40625 126.15625 133.046875 128.871094 132.800781 131.746094 Z M 157.480469 138.34375 C 149.046875 139.484375 141.003906 141.144531 133.492188 143.269531 C 133.464844 139.355469 133.609375 135.527344 133.925781 131.832031 C 134.1875 128.8125 134.578125 125.925781 135.054688 123.210938 C 142.289062 121.085938 150.074219 119.425781 158.21875 118.285156 C 157.65625 124.753906 157.4375 131.628906 157.480469 138.34375 Z M 184.167969 116.4375 L 184.167969 136.554688 C 175.332031 136.582031 166.695312 137.160156 158.40625 138.230469 C 158.390625 131.066406 158.652344 124.292969 159.214844 118.140625 C 167.242188 117.070312 175.605469 116.480469 184.167969 116.4375 Z M 184.167969 106.917969 L 184.167969 115.308594 C 175.75 115.339844 167.402344 115.902344 159.328125 116.957031 C 159.632812 113.980469 160.007812 111.121094 160.484375 108.480469 C 168.066406 107.484375 176.011719 106.949219 184.167969 106.917969 Z M 184.167969 105.777344 C 176.140625 105.808594 168.285156 106.328125 160.6875 107.308594 C 161.0625 105.359375 161.480469 103.496094 161.945312 101.765625 C 169.09375 100.824219 176.542969 100.335938 184.167969 100.304688 Z M 185.296875 105.777344 L 185.296875 100.304688 C 192.9375 100.335938 200.386719 100.824219 207.535156 101.75 C 208.011719 103.484375 208.417969 105.34375 208.792969 107.308594 C 201.195312 106.328125 193.324219 105.808594 185.296875 105.777344 Z M 185.296875 115.308594 L 185.296875 106.917969 C 193.46875 106.933594 201.414062 107.46875 209.007812 108.464844 C 209.472656 111.121094 209.847656 113.953125 210.148438 116.925781 C 202.191406 115.886719 193.84375 115.339844 185.296875 115.308594 Z M 211.074219 138.230469 C 202.800781 137.144531 194.148438 136.566406 185.296875 136.554688 L 185.296875 116.4375 C 193.902344 116.464844 202.265625 117.042969 210.265625 118.082031 C 210.84375 124.25 211.101562 131.050781 211.074219 138.230469 Z M 235.566406 131.832031 C 235.886719 135.527344 236.015625 139.355469 235.984375 143.269531 C 228.492188 141.144531 220.445312 139.484375 212.011719 138.34375 C 212.042969 131.601562 211.839844 124.710938 211.261719 118.214844 C 219.4375 119.339844 227.191406 120.972656 234.398438 123.035156 C 234.902344 125.824219 235.292969 128.753906 235.566406 131.832031 Z M 237.113281 143.601562 C 237.15625 139.484375 237.011719 135.515625 236.695312 131.746094 C 236.433594 128.828125 236.074219 126.054688 235.609375 123.382812 C 242.511719 125.433594 248.867188 127.890625 254.558594 130.703125 C 255.871094 136.410156 256.636719 142.621094 256.796875 149.277344 C 256.8125 149.867188 256.796875 150.476562 256.8125 151.066406 C 250.847656 148.179688 244.230469 145.679688 237.113281 143.601562 Z M 235.046875 168.425781 C 236.261719 160.351562 236.9375 152.613281 237.082031 145.335938 C 244.246094 147.457031 250.875 150.011719 256.8125 152.960938 C 256.738281 160.324219 255.929688 168.023438 254.457031 175.820312 C 248.609375 172.945312 242.082031 170.476562 235.046875 168.425781 Z M 232.605469 182.015625 C 233.503906 177.8125 234.238281 173.683594 234.875 169.625 C 235.726562 169.871094 236.59375 170.101562 237.445312 170.363281 C 243.539062 172.28125 249.140625 174.507812 254.210938 177.003906 C 253.417969 181.019531 252.449219 185.0625 251.308594 189.09375 C 245.660156 186.347656 239.394531 183.964844 232.605469 182.015625 Z M 229.71875 194.21875 C 230.699219 190.492188 231.582031 186.78125 232.359375 183.113281 C 239.132812 185.0625 245.386719 187.445312 250.992188 190.191406 C 249.9375 193.785156 248.753906 197.382812 247.4375 200.949219 C 242.09375 198.347656 236.144531 196.082031 229.71875 194.21875 Z M 243.597656 210.421875 C 241.316406 215.5625 238.800781 220.53125 236.058594 225.3125 C 231.726562 223.1875 226.902344 221.355469 221.6875 219.839844 C 223.234375 215.664062 224.707031 211.359375 226.078125 206.972656 C 227.292969 203.058594 228.417969 199.171875 229.445312 195.332031 C 235.828125 197.164062 241.734375 199.402344 247.046875 202.003906 C 245.964844 204.832031 244.839844 207.648438 243.597656 210.421875 Z M 247.582031 232.621094 C 244.578125 230.121094 241.039062 227.839844 237.070312 225.816406 C 239.8125 221.023438 242.339844 216.039062 244.636719 210.882812 C 245.863281 208.113281 247.003906 205.324219 248.058594 202.507812 C 253.070312 205.050781 257.503906 207.910156 261.230469 211.058594 C 257.460938 218.464844 252.882812 225.703125 247.582031 232.621094 Z M 250.398438 235.175781 C 249.777344 234.554688 249.113281 233.949219 248.433594 233.355469 C 253.734375 226.453125 258.328125 219.230469 262.109375 211.824219 C 262.863281 212.503906 263.597656 213.167969 264.277344 213.859375 C 266.804688 216.386719 268.796875 218.972656 270.269531 221.628906 C 269.878906 222.308594 269.492188 222.988281 269.085938 223.652344 C 265.113281 230.078125 260.492188 236.042969 255.308594 241.5 C 254.066406 239.320312 252.433594 237.226562 250.398438 235.175781 Z M 231.394531 254.121094 C 231.003906 253.746094 230.585938 253.371094 230.167969 253.011719 C 236.363281 247.507812 242.226562 241.285156 247.523438 234.554688 C 247.597656 234.453125 247.667969 234.335938 247.742188 234.25 C 248.390625 234.8125 249.011719 235.390625 249.589844 235.96875 C 251.65625 238.035156 253.273438 240.171875 254.484375 242.351562 C 248.636719 248.375 242.035156 253.761719 234.800781 258.46875 C 233.933594 256.980469 232.792969 255.539062 231.394531 254.121094 Z M 209.167969 268.40625 C 209.082031 268.320312 209.007812 268.261719 208.921875 268.1875 C 215.867188 264.390625 222.757812 259.480469 229.3125 253.761719 C 229.761719 254.136719 230.195312 254.527344 230.597656 254.929688 C 231.941406 256.289062 233.027344 257.675781 233.863281 259.089844 C 226.785156 263.609375 219.117188 267.464844 210.914062 270.613281 C 210.453125 269.851562 209.875 269.113281 209.167969 268.40625 Z M 140.136719 253.734375 C 146.707031 259.464844 153.609375 264.375 160.558594 268.175781 C 160.472656 268.261719 160.382812 268.320312 160.3125 268.40625 C 159.605469 269.113281 159.027344 269.851562 158.550781 270.613281 C 150.347656 267.464844 142.691406 263.597656 135.617188 259.089844 C 136.714844 257.199219 138.246094 255.40625 140.136719 253.734375 Z M 121.722656 234.238281 C 121.8125 234.335938 121.882812 234.453125 121.96875 234.554688 C 127.253906 241.285156 133.117188 247.507812 139.3125 252.996094 C 138.894531 253.371094 138.476562 253.746094 138.070312 254.121094 C 136.671875 255.523438 135.53125 256.980469 134.664062 258.46875 C 127.441406 253.761719 120.84375 248.359375 114.996094 242.351562 C 116.570312 239.492188 118.851562 236.765625 121.722656 234.238281 Z M 121.046875 233.339844 C 120.367188 233.933594 119.703125 234.554688 119.082031 235.175781 C 117.03125 237.210938 115.414062 239.320312 114.171875 241.472656 C 108.972656 236.027344 104.367188 230.078125 100.410156 223.652344 C 99.988281 222.988281 99.613281 222.308594 99.210938 221.628906 C 101.128906 218.164062 103.890625 214.886719 107.371094 211.824219 C 111.167969 219.21875 115.746094 226.4375 121.046875 233.339844 Z M 124.859375 210.882812 C 127.140625 216.027344 129.667969 221.007812 132.410156 225.804688 C 128.4375 227.839844 124.902344 230.121094 121.910156 232.605469 C 116.613281 225.703125 112.019531 218.464844 108.25 211.058594 C 111.945312 207.953125 116.378906 205.09375 121.433594 202.550781 C 122.503906 205.351562 123.644531 208.125 124.859375 210.882812 Z M 143.414062 206.972656 C 144.789062 211.359375 146.261719 215.664062 147.792969 219.839844 C 142.578125 221.339844 137.753906 223.1875 133.421875 225.3125 C 130.691406 220.53125 128.164062 215.5625 125.882812 210.421875 C 124.65625 207.664062 123.53125 204.863281 122.460938 202.03125 C 127.730469 199.476562 133.636719 197.222656 140.066406 195.375 C 141.089844 199.203125 142.1875 203.085938 143.414062 206.972656 Z M 161.308594 190.941406 C 162.449219 199.679688 163.777344 208.199219 165.25 216.183594 C 159.546875 216.964844 154.101562 218.078125 149.003906 219.492188 C 146.128906 211.75 143.488281 203.503906 141.234375 195.042969 C 147.488281 193.28125 154.21875 191.910156 161.308594 190.941406 Z M 159.835938 178.433594 C 160.226562 182.234375 160.671875 186.046875 161.148438 189.800781 C 154.058594 190.753906 147.269531 192.125 140.929688 193.902344 C 139.964844 190.246094 139.082031 186.550781 138.289062 182.839844 C 144.988281 180.960938 152.226562 179.460938 159.835938 178.433594 Z M 158.566406 164.484375 C 158.765625 167.125 158.96875 169.554688 159.171875 171.691406 C 159.328125 173.554688 159.519531 175.429688 159.71875 177.292969 C 152.09375 178.304688 144.816406 179.792969 138.027344 181.683594 C 137.148438 177.511719 136.367188 173.335938 135.734375 169.164062 C 142.835938 167.15625 150.507812 165.582031 158.566406 164.484375 Z M 158.492188 163.355469 C 150.433594 164.425781 142.738281 165.984375 135.558594 168.007812 C 134.375 160.210938 133.652344 152.484375 133.523438 145.058594 C 140.960938 142.921875 149.003906 141.234375 157.496094 140.078125 C 157.566406 148.46875 158 156.585938 158.492188 163.355469 Z M 184.167969 161.640625 C 175.679688 161.652344 167.375 162.203125 159.402344 163.226562 C 158.824219 155.242188 158.476562 147.398438 158.421875 139.949219 C 166.636719 138.851562 175.273438 138.285156 184.167969 138.257812 Z M 210.078125 163.269531 C 202.121094 162.230469 193.800781 161.667969 185.296875 161.640625 L 185.296875 138.257812 C 194.148438 138.273438 202.800781 138.851562 211.074219 139.933594 C 211.015625 147.398438 210.667969 155.253906 210.078125 163.269531 Z M 211.003906 163.386719 C 211.492188 156.597656 211.910156 148.484375 212 140.046875 C 220.433594 141.191406 228.476562 142.863281 235.972656 145.015625 C 235.828125 152.46875 235.105469 160.253906 233.921875 168.09375 C 226.757812 166.058594 219.058594 164.46875 211.003906 163.386719 Z M 209.773438 177.292969 C 209.960938 175.429688 210.148438 173.554688 210.324219 171.691406 C 210.511719 169.566406 210.714844 167.167969 210.914062 164.542969 C 218.871094 165.625 226.542969 167.226562 233.746094 169.292969 C 233.097656 173.421875 232.332031 177.554688 231.453125 181.683594 C 224.664062 179.792969 217.386719 178.304688 209.773438 177.292969 Z M 208.332031 189.800781 C 208.808594 186.03125 209.253906 182.234375 209.660156 178.40625 C 217.226562 179.429688 224.476562 180.890625 231.21875 182.78125 C 230.410156 186.523438 229.53125 190.234375 228.5625 193.902344 C 222.207031 192.125 215.4375 190.753906 208.332031 189.800781 Z M 204.230469 216.183594 C 205.703125 208.183594 207.046875 199.664062 208.1875 190.925781 C 215.234375 191.878906 221.976562 193.238281 228.273438 195 C 226.007812 203.476562 223.347656 211.75 220.488281 219.507812 C 215.390625 218.078125 209.933594 216.964844 204.230469 216.183594 Z M 210.324219 243.03125 C 206.726562 242.035156 202.886719 241.226562 198.871094 240.664062 C 200.691406 233.789062 202.4375 225.859375 204.042969 217.296875 C 209.671875 218.0625 215.058594 219.160156 220.101562 220.558594 C 217.023438 228.792969 213.6875 236.402344 210.324219 243.03125 Z M 221.054688 247.0625 C 218.152344 245.644531 214.960938 244.417969 211.507812 243.378906 C 214.914062 236.675781 218.238281 229.066406 221.300781 220.894531 C 226.453125 222.378906 231.234375 224.199219 235.507812 226.292969 C 231.207031 233.714844 226.351562 240.664062 221.054688 247.0625 Z M 222.078125 247.582031 C 227.363281 241.183594 232.214844 234.222656 236.519531 226.800781 C 240.449219 228.792969 243.929688 231.058594 246.890625 233.515625 C 246.800781 233.628906 246.714844 233.730469 246.628906 233.847656 C 241.34375 240.578125 235.480469 246.785156 229.3125 252.261719 C 227.234375 250.542969 224.808594 248.96875 222.078125 247.582031 Z M 210.988281 244.402344 C 214.351562 245.398438 217.484375 246.570312 220.300781 247.925781 C 215.148438 254.050781 209.558594 259.652344 203.609375 264.605469 C 202.25 263.957031 200.761719 263.367188 199.175781 262.875 C 203.03125 258.339844 207.058594 251.984375 210.988281 244.402344 Z M 198.582031 241.773438 C 202.511719 242.308594 206.28125 243.089844 209.804688 244.070312 C 205.804688 251.828125 201.757812 258.167969 197.988281 262.527344 C 196.011719 261.980469 193.902344 261.546875 191.707031 261.257812 C 193.976562 256.882812 196.316406 250.136719 198.582031 241.773438 Z M 185.296875 240.851562 C 189.5 240.867188 193.601562 241.140625 197.542969 241.628906 C 195.246094 250.007812 192.847656 256.75 190.496094 261.113281 C 188.820312 260.925781 187.074219 260.824219 185.296875 260.808594 Z M 178.984375 261.113281 C 176.632812 256.75 174.234375 250.007812 171.953125 241.628906 C 175.851562 241.125 179.953125 240.867188 184.167969 240.835938 L 184.167969 260.808594 C 182.40625 260.824219 180.660156 260.925781 178.984375 261.113281 Z M 171.503906 262.527344 C 167.734375 258.167969 163.691406 251.828125 159.691406 244.070312 C 163.199219 243.105469 166.957031 242.324219 170.914062 241.773438 C 173.164062 250.152344 175.503906 256.882812 177.785156 261.257812 C 175.578125 261.53125 173.46875 261.964844 171.503906 262.527344 Z M 165.886719 264.605469 C 159.9375 259.652344 154.347656 254.050781 149.175781 247.941406 C 152.007812 246.597656 155.128906 245.414062 158.507812 244.402344 C 162.433594 251.984375 166.464844 258.339844 170.304688 262.859375 C 168.71875 263.367188 167.230469 263.941406 165.886719 264.605469 Z M 147.402344 247.566406 C 144.6875 248.96875 142.246094 250.542969 140.167969 252.246094 C 134 246.773438 128.136719 240.578125 122.863281 233.847656 C 122.765625 233.730469 122.675781 233.617188 122.589844 233.5 C 125.523438 231.074219 129.015625 228.835938 132.972656 226.828125 C 137.277344 234.238281 142.117188 241.183594 147.402344 247.566406 Z M 157.972656 243.378906 C 154.535156 244.402344 151.328125 245.632812 148.441406 247.046875 C 143.140625 240.664062 138.304688 233.730469 134 226.324219 C 138.246094 224.242188 143.027344 222.4375 148.195312 220.9375 C 151.257812 229.082031 154.578125 236.691406 157.972656 243.378906 Z M 170.609375 240.664062 C 166.59375 241.226562 162.765625 242.035156 159.171875 243.03125 C 155.804688 236.402344 152.484375 228.792969 149.410156 220.574219 C 154.417969 219.1875 159.792969 218.089844 165.453125 217.3125 C 167.054688 225.859375 168.804688 233.789062 170.609375 240.664062 Z M 184.167969 216.027344 L 184.167969 239.710938 C 179.867188 239.738281 175.679688 240.027344 171.648438 240.53125 C 169.816406 233.660156 168.039062 225.730469 166.421875 217.179688 C 172.097656 216.445312 178.046875 216.054688 184.167969 216.027344 Z M 184.167969 189.382812 L 184.167969 214.898438 C 178.003906 214.914062 171.980469 215.316406 166.21875 216.054688 C 164.714844 208.054688 163.375 199.519531 162.234375 190.8125 C 169.25 189.902344 176.601562 189.410156 184.167969 189.382812 Z M 184.167969 176.773438 L 184.167969 188.253906 C 176.585938 188.269531 169.195312 188.761719 162.089844 189.667969 C 161.597656 185.914062 161.148438 182.117188 160.746094 178.289062 C 168.242188 177.335938 176.082031 176.800781 184.167969 176.773438 Z M 184.167969 175.648438 C 176.097656 175.660156 168.195312 176.179688 160.628906 177.164062 C 160.195312 172.890625 159.804688 168.601562 159.488281 164.367188 C 167.375 163.34375 175.648438 162.792969 184.167969 162.765625 Z M 185.296875 175.648438 L 185.296875 162.78125 C 193.699219 162.808594 201.992188 163.386719 209.992188 164.425781 C 209.6875 168.644531 209.296875 172.902344 208.851562 177.164062 C 201.28125 176.179688 193.382812 175.660156 185.296875 175.648438 Z M 185.296875 188.253906 L 185.296875 176.773438 C 193.355469 176.800781 201.210938 177.308594 208.75 178.277344 C 208.34375 182.101562 207.898438 185.914062 207.40625 189.683594 C 200.300781 188.761719 192.890625 188.269531 185.296875 188.253906 Z M 185.296875 214.898438 L 185.296875 189.382812 C 192.835938 189.394531 200.199219 189.886719 207.261719 190.796875 C 206.121094 199.519531 204.761719 208.054688 203.277344 216.070312 C 197.5 215.316406 191.460938 214.914062 185.296875 214.898438 Z M 185.296875 216.027344 C 191.40625 216.054688 197.355469 216.429688 203.074219 217.167969 C 201.457031 225.730469 199.679688 233.660156 197.832031 240.546875 C 193.800781 240.027344 189.597656 239.738281 185.296875 239.710938 Z M 161.4375 267.378906 C 154.507812 263.609375 147.574219 258.730469 141.003906 252.980469 C 143.027344 251.351562 145.421875 249.832031 148.136719 248.460938 C 153.292969 254.585938 158.867188 260.171875 164.789062 265.171875 C 163.546875 265.835938 162.421875 266.570312 161.4375 267.378906 Z M 204.691406 265.171875 C 210.625 260.1875 216.199219 254.585938 221.34375 248.460938 C 224.027344 249.832031 226.410156 251.351562 228.449219 253.023438 C 221.875 258.742188 214.972656 263.625 208.042969 267.394531 C 207.058594 266.585938 205.949219 265.847656 204.691406 265.171875 Z M 196.503906 290.109375 C 195.363281 289.851562 194.265625 289.257812 193.210938 288.363281 C 195.074219 288.058594 196.835938 287.65625 198.496094 287.179688 C 200.660156 288.046875 202.785156 288.582031 205.066406 288.78125 C 202.25 289.347656 199.375 289.777344 196.503906 290.109375 Z M 207.953125 280.21875 C 203.652344 284.535156 194.523438 287.324219 184.734375 287.324219 C 174.941406 287.324219 165.828125 284.535156 161.511719 280.21875 C 159.835938 278.542969 158.984375 276.753906 158.984375 274.917969 C 158.984375 268.058594 170.535156 262.484375 184.734375 262.484375 C 194.523438 262.484375 203.652344 265.285156 207.953125 269.605469 C 209.644531 271.28125 210.496094 273.070312 210.496094 274.917969 C 210.496094 276.753906 209.644531 278.542969 207.953125 280.21875 Z M 96.0625 232.878906 C 96.121094 229.414062 97 226.046875 98.601562 222.800781 C 98.878906 223.289062 99.152344 223.765625 99.457031 224.257812 C 103.511719 230.84375 108.265625 236.953125 113.609375 242.539062 C 112.324219 245.082031 111.585938 247.695312 111.398438 250.367188 C 105.867188 245.414062 100.625 239.625 96.0625 232.878906 Z M 112.46875 251.320312 C 112.539062 248.589844 113.21875 245.949219 114.445312 243.40625 C 120.324219 249.386719 126.910156 254.773438 134.128906 259.464844 C 133.21875 261.285156 132.714844 263.148438 132.585938 265.054688 C 125.914062 261.53125 119.007812 257.011719 112.46875 251.320312 Z M 138.878906 276.984375 C 137.726562 275.84375 136.785156 274.660156 136.019531 273.460938 C 143.71875 276.246094 151.429688 277.964844 158.304688 278.746094 C 158.695312 279.480469 159.1875 280.175781 159.792969 280.867188 C 153.554688 281.144531 146.765625 280.175781 140.195312 278.210938 C 139.746094 277.808594 139.285156 277.402344 138.878906 276.984375 Z M 155.488281 286.558594 C 154.390625 286.183594 153.308594 285.777344 152.269531 285.359375 C 155.894531 285.765625 159.632812 285.53125 165.238281 284.882812 C 166.480469 285.53125 167.820312 286.109375 169.28125 286.601562 C 166.203125 287.640625 163.128906 287.960938 159.375 287.613281 C 159.359375 287.613281 159.328125 287.613281 159.328125 287.613281 C 158.042969 287.296875 156.757812 286.933594 155.488281 286.558594 Z M 213.976562 286.558594 C 212.707031 286.933594 211.433594 287.28125 210.148438 287.613281 C 210.136719 287.613281 210.136719 287.613281 210.121094 287.613281 C 206.367188 287.960938 203.320312 287.640625 200.257812 286.617188 C 201.714844 286.109375 203.074219 285.53125 204.300781 284.898438 C 209.859375 285.53125 213.585938 285.765625 217.199219 285.359375 C 216.15625 285.777344 215.074219 286.183594 213.976562 286.558594 Z M 229.269531 278.210938 C 222.699219 280.175781 215.925781 281.144531 209.714844 280.867188 C 210.308594 280.175781 210.800781 279.480469 211.203125 278.746094 C 218.050781 277.964844 225.761719 276.261719 233.457031 273.472656 C 232.679688 274.660156 231.738281 275.84375 230.597656 276.984375 C 230.179688 277.402344 229.71875 277.808594 229.269531 278.210938 Z M 236.882812 265.070312 C 236.765625 263.148438 236.246094 261.300781 235.335938 259.464844 C 242.570312 254.773438 249.15625 249.398438 255.035156 243.40625 C 256.289062 245.976562 256.941406 248.636719 257 251.335938 C 250.457031 257.011719 243.554688 261.546875 236.882812 265.070312 Z M 258.082031 250.382812 C 257.894531 247.710938 257.15625 245.097656 255.859375 242.554688 C 261.230469 236.953125 265.980469 230.84375 270.039062 224.257812 C 270.328125 223.765625 270.601562 223.289062 270.890625 222.800781 C 272.507812 226.078125 273.359375 229.457031 273.402344 232.90625 C 268.839844 239.636719 263.613281 245.429688 258.082031 250.382812 Z M 274.457031 231.277344 C 274.183594 227.984375 273.214844 224.777344 271.585938 221.644531 C 273.347656 218.566406 274.964844 215.449219 276.378906 212.269531 C 278.15625 215.839844 279.066406 219.476562 279.109375 223.21875 C 277.664062 226.035156 276.105469 228.71875 274.457031 231.277344 Z M 270.660156 186.175781 C 266.386719 182.550781 261.273438 179.257812 255.511719 176.339844 C 257 168.570312 257.820312 160.886719 257.921875 153.507812 C 263.914062 156.554688 269.160156 160.019531 273.519531 163.820312 C 273.519531 170.679688 272.683594 177.742188 270.964844 184.960938 C 270.875 185.367188 270.761719 185.769531 270.660156 186.175781 Z M 220.433594 94.585938 C 223.507812 97.34375 226.121094 100.738281 228.304688 104.738281 C 222.035156 103.007812 215.335938 101.664062 208.34375 100.722656 C 207.320312 97.042969 206.035156 93.820312 204.445312 91.265625 C 210.035156 92.042969 215.390625 93.15625 220.433594 94.585938 Z M 149.003906 94.628906 C 154.042969 93.199219 159.429688 92.074219 165.035156 91.28125 C 163.445312 93.835938 162.175781 97.054688 161.148438 100.722656 C 154.160156 101.675781 147.460938 103.019531 141.191406 104.738281 C 143.34375 100.78125 145.941406 97.386719 149.003906 94.628906 Z M 98.515625 184.960938 C 96.8125 177.742188 95.976562 170.664062 95.960938 163.804688 C 100.277344 160.066406 105.519531 156.613281 111.558594 153.550781 C 111.671875 160.875 112.480469 168.46875 113.953125 176.179688 C 108.179688 179.085938 103.066406 182.347656 98.777344 185.957031 C 98.691406 185.625 98.601562 185.292969 98.515625 184.960938 Z M 85.777344 211.636719 C 85.777344 207.664062 86.746094 203.792969 88.582031 200.097656 C 89.664062 203.734375 90.992188 207.347656 92.523438 210.898438 C 90.734375 214.207031 89.679688 217.613281 89.347656 221.082031 C 88.046875 218.367188 86.863281 215.535156 85.808594 212.574219 C 85.792969 212.269531 85.777344 211.953125 85.777344 211.636719 Z M 91.121094 229.328125 C 90.820312 228.171875 90.617188 227.015625 90.5 225.847656 C 91.886719 228.402344 93.359375 230.855469 94.921875 233.183594 C 94.921875 233.195312 94.921875 233.210938 94.921875 233.226562 C 94.921875 234.886719 95.109375 236.53125 95.46875 238.164062 C 93.867188 235.289062 92.421875 232.34375 91.121094 229.328125 Z M 102.761719 249.355469 C 102.691406 249.285156 102.617188 249.226562 102.53125 249.199219 C 101 247.117188 99.570312 244.980469 98.214844 242.800781 C 97.027344 240.214844 96.320312 237.574219 96.121094 234.902344 C 100.683594 241.398438 105.867188 247.003906 111.324219 251.796875 C 111.339844 254.441406 111.917969 257.054688 113.03125 259.597656 C 109.246094 256.59375 105.75 253.199219 102.761719 249.355469 Z M 120.554688 268.074219 C 119.066406 266.65625 117.765625 265.199219 116.683594 263.699219 C 122.242188 267.464844 128.25 270.484375 134.332031 272.824219 C 135.167969 274.398438 136.296875 275.914062 137.726562 277.402344 C 133.074219 275.800781 128.613281 273.707031 124.582031 271.191406 C 123.226562 270.183594 121.882812 269.15625 120.554688 268.074219 Z M 248.925781 268.074219 C 247.566406 269.171875 246.183594 270.238281 244.78125 271.265625 C 240.765625 273.777344 236.304688 275.84375 231.683594 277.429688 C 233.097656 275.972656 234.238281 274.425781 235.105469 272.839844 C 241.183594 270.515625 247.191406 267.496094 252.753906 263.726562 C 251.683594 265.214844 250.398438 266.671875 248.925781 268.074219 Z M 266.933594 249.199219 C 266.863281 249.226562 266.789062 249.285156 266.730469 249.355469 C 263.726562 253.214844 260.21875 256.605469 256.433594 259.625 C 257.546875 257.070312 258.125 254.453125 258.140625 251.8125 C 263.597656 247.015625 268.78125 241.414062 273.347656 234.945312 C 273.144531 237.617188 272.421875 240.246094 271.253906 242.828125 C 269.894531 244.996094 268.464844 247.117188 266.933594 249.199219 Z M 273.996094 238.164062 C 274.355469 236.546875 274.546875 234.886719 274.546875 233.226562 C 276.105469 230.886719 277.578125 228.460938 278.964844 225.890625 C 278.847656 227.042969 278.644531 228.1875 278.359375 229.339844 C 277.042969 232.34375 275.597656 235.304688 273.996094 238.164062 Z M 277.835938 147.152344 C 275.945312 144.699219 273.664062 142.34375 271.078125 140.09375 C 270.183594 137.304688 269.128906 134.5625 267.917969 131.890625 C 269.78125 133.679688 271.441406 135.527344 272.855469 137.464844 C 274.703125 140.597656 276.351562 143.847656 277.835938 147.152344 Z M 246.585938 111.398438 C 241.472656 108.984375 235.839844 106.890625 229.804688 105.15625 C 227.839844 101.34375 225.5 98.050781 222.773438 95.25 C 226.785156 96.492188 230.585938 97.953125 234.109375 99.582031 C 235.480469 100.347656 236.839844 101.128906 238.179688 101.964844 C 241.359375 104.566406 244.175781 107.726562 246.585938 111.398438 Z M 200.171875 88.015625 C 200.820312 88.535156 201.425781 89.128906 202.019531 89.820312 C 196.605469 89.171875 191.015625 88.824219 185.296875 88.796875 L 185.296875 86.875 C 190.320312 86.890625 195.289062 87.277344 200.171875 88.015625 Z M 184.167969 86.859375 L 184.167969 88.796875 C 178.480469 88.824219 172.875 89.183594 167.460938 89.835938 C 168.039062 89.140625 168.660156 88.535156 169.308594 88.015625 C 174.160156 87.277344 179.128906 86.890625 184.167969 86.859375 Z M 96.695312 137.40625 C 98.097656 135.515625 99.714844 133.679688 101.550781 131.933594 C 100.320312 134.632812 99.265625 137.40625 98.371094 140.238281 C 95.742188 142.503906 93.476562 144.902344 91.585938 147.355469 C 93.117188 143.933594 94.820312 140.613281 96.695312 137.40625 Z M 82.789062 186.898438 C 82.976562 184.050781 83.640625 181.265625 84.769531 178.550781 C 85.144531 185.238281 86.285156 191.910156 88.117188 198.480469 C 86.242188 201.929688 85.128906 205.484375 84.78125 209.136719 C 83.453125 202.523438 82.761719 195.722656 82.761719 188.832031 C 82.761719 188.183594 82.773438 187.53125 82.789062 186.898438 Z M 81.027344 188.585938 C 81.027344 188.660156 81.042969 188.714844 81.070312 188.789062 C 81.070312 188.804688 81.054688 188.816406 81.054688 188.832031 C 81.054688 216.515625 91.84375 242.554688 111.425781 262.136719 C 131.011719 281.71875 157.035156 292.492188 184.734375 292.492188 C 241.863281 292.492188 288.351562 246.035156 288.410156 188.917969 C 288.453125 188.816406 288.480469 188.703125 288.480469 188.585938 C 288.480469 187.675781 288.421875 186.78125 288.335938 185.886719 C 287.601562 159.300781 276.929688 134.402344 258.039062 115.527344 C 238.457031 95.945312 212.433594 85.15625 184.734375 85.15625 C 157.046875 85.15625 131.011719 95.945312 111.425781 115.527344 C 92.421875 134.53125 81.734375 159.601562 81.128906 186.390625 C 81.054688 187.128906 81.027344 187.851562 81.027344 188.585938 " fill-opacity="1" fill-rule="nonzero"/><g clip-path="url(#80941405fd)"><path fill="#00ff00" d="M 294.488281 209.023438 C 292.914062 209.152344 291.902344 210.207031 292.222656 211.359375 C 292.539062 212.53125 294.070312 213.367188 295.644531 213.238281 C 306.648438 212.3125 315.488281 210.652344 321.566406 208.285156 C 328.023438 205.773438 331.558594 202.421875 331.558594 198.25 C 331.558594 189.582031 315.039062 179.53125 288.351562 170.304688 C 262.585938 161.394531 227.046875 152.960938 187.835938 147.140625 C 168.023438 144.207031 149.191406 142.214844 132.078125 141.117188 C 107.296875 139.527344 86.066406 139.847656 70.746094 141.925781 C 54.484375 144.136719 44.5625 148.484375 43.539062 154.867188 C 43.480469 155.242188 43.449219 155.617188 43.449219 155.976562 C 43.449219 159.574219 46.136719 163.328125 51.105469 167.125 C 55.886719 170.75 62.847656 174.492188 71.597656 178.1875 C 73.042969 178.796875 74.789062 178.492188 75.496094 177.480469 C 76.203125 176.484375 75.613281 175.183594 74.167969 174.5625 C 65.949219 171.097656 59.464844 167.632812 55.148438 164.339844 C 51.335938 161.4375 49.269531 158.734375 49.269531 156.351562 C 49.269531 156.121094 49.300781 155.90625 49.328125 155.71875 C 50.050781 151.226562 58.414062 147.976562 72.261719 146.101562 C 87.050781 144.078125 107.757812 143.804688 132.078125 145.347656 C 149.003906 146.433594 167.632812 148.410156 187.171875 151.3125 C 225.90625 157.046875 260.941406 165.351562 286.257812 174.101562 C 310.632812 182.535156 325.726562 191.128906 325.726562 197.871094 C 325.726562 200.457031 323.167969 202.683594 318.492188 204.5 C 312.988281 206.640625 304.800781 208.15625 294.488281 209.023438 " fill-opacity="1" fill-rule="nonzero"/></g><g clip-path="url(#b92e2b46ee)"><path fill="#00ff00" d="M 291.789062 82.789062 L 291.933594 82.789062 C 292.914062 95.714844 303.226562 106.039062 316.152344 107.007812 L 316.152344 107.164062 C 303.226562 108.132812 292.914062 118.457031 291.933594 131.382812 L 291.789062 131.382812 C 290.804688 118.457031 280.496094 108.132812 267.570312 107.164062 L 267.570312 107.007812 C 280.496094 106.039062 290.804688 95.714844 291.789062 82.789062 " fill-opacity="1" fill-rule="evenodd"/></g><path fill="#00ff00" d="M 316.542969 127.382812 L 316.613281 127.382812 C 317.019531 132.886719 321.40625 137.277344 326.894531 137.679688 L 326.894531 137.753906 C 321.40625 138.15625 317.019531 142.546875 316.613281 148.035156 L 316.542969 148.035156 C 316.136719 142.546875 311.746094 138.15625 306.246094 137.753906 L 306.246094 137.679688 C 311.746094 137.277344 316.136719 132.886719 316.542969 127.382812 " fill-opacity="1" fill-rule="evenodd"/><path stroke-linecap="butt" transform="matrix(0.743401, -0.0992719, 0.0992719, 0.743401, 64.049187, 155.333661)" fill="none" stroke-linejoin="miter" d="M 12.819157 55.001465 C 10.617461 55.001711 8.655066 54.508457 6.931972 53.521702 C 5.214731 52.530473 3.866175 51.178622 2.870817 49.46408 C 1.887162 47.740591 1.39263 45.777654 1.393073 43.570795 L 1.395754 21.633336 C 1.396197 19.426477 1.888762 17.469244 2.868976 15.755787 C 3.866056 14.034072 5.218597 12.680354 6.931761 11.69532 C 8.651466 10.700651 10.614403 10.20612 12.821262 10.206563 L 44.795594 10.204374 C 45.205164 10.206521 45.540021 10.33531 45.793626 10.600377 C 46.057556 10.866822 46.191029 11.205175 46.188881 11.614744 L 46.19124 23.873964 C 46.188756 24.246706 46.059277 24.586727 45.793169 24.887484 C 45.538764 25.179294 45.204195 25.323781 44.794626 25.321634 L 19.603666 25.325872 C 19.230923 25.323388 18.897734 25.45755 18.615801 25.719411 C 18.334557 25.976111 18.194753 26.314752 18.191917 26.729484 L 18.192655 38.489304 C 18.195333 38.862735 18.335347 39.191452 18.618548 39.47098 C 18.902438 39.745346 19.225593 39.883081 19.604187 39.881092 L 44.794458 39.882016 C 45.204716 39.879001 45.538885 40.012953 45.79249 40.278019 C 46.057798 40.53414 46.186798 40.86664 46.189813 41.276899 L 46.190103 53.551606 C 46.188998 53.914024 46.055046 54.248192 45.7941 54.549638 C 45.538317 54.851774 45.203059 55.001423 44.793489 54.999276 Z M 12.819157 55.001465 " stroke="#231f20" stroke-width="11.269819" stroke-opacity="1" stroke-miterlimit="4"/><path stroke-linecap="butt" transform="matrix(0.746913, -0.0679759, 0.0679759, 0.746913, 100.4886, 150.556953)" fill="none" stroke-linejoin="miter" d="M 2.854754 54.997704 C 2.48318 55.000496 2.145099 54.86513 1.845698 54.592079 C 1.542055 54.308181 1.394023 53.980917 1.39689 53.604629 L 1.393462 21.634192 C 1.395567 19.427383 1.887578 17.469125 2.869967 15.75423 C 3.863201 14.035093 5.215714 12.678134 6.931747 11.694199 C 8.653911 10.700363 10.618397 10.204498 12.820019 10.206131 L 26.370674 10.205118 C 28.572296 10.206752 30.535269 10.704421 32.244033 11.696712 C 33.969302 12.680045 35.321074 14.032085 36.304536 15.753305 C 37.298844 17.470282 37.795182 19.429582 37.793549 21.631204 L 37.796505 53.606827 C 37.79411 53.977929 37.664875 54.306108 37.398427 54.590421 C 37.132922 54.864359 36.796229 55.001073 36.388347 55.000561 L 22.44537 55.002477 C 22.079455 55.000555 21.74656 54.865661 21.447631 54.587423 C 21.148702 54.309184 20.995484 53.981449 20.998351 53.60516 L 20.996295 45.812483 C 20.996807 45.404601 20.865753 45.063193 20.597945 44.787787 C 20.346171 44.50861 20.014221 44.363342 19.600679 44.367545 C 19.229577 44.365151 18.898543 44.497149 18.618422 44.759298 C 18.333586 45.015788 18.193505 45.34821 18.192521 45.761279 L 18.195043 53.606296 C 18.192649 53.977398 18.063414 54.305577 17.796966 54.58989 C 17.541835 54.864772 17.210329 55.001958 16.797259 55.000974 Z M 19.600127 30.926759 C 20.013197 30.927743 20.345175 30.785371 20.600778 30.505301 C 20.862039 30.220517 20.996461 29.892809 20.993669 29.521235 L 20.997885 25.05009 C 20.998397 24.642208 20.862155 24.300328 20.598119 24.040954 C 20.3454 23.772151 20.012034 23.642444 19.604151 23.641932 C 19.22739 23.644253 18.901543 23.776723 18.616235 24.0384 C 18.336114 24.300548 18.195561 24.638157 18.194577 25.051227 L 18.195548 29.522844 C 18.193153 29.893946 18.335998 30.220738 18.618894 30.502747 C 18.90179 30.784756 19.228553 30.929551 19.600127 30.926759 Z M 19.600127 30.926759 " stroke="#231f20" stroke-width="11.269819" stroke-opacity="1" stroke-miterlimit="4"/><path stroke-linecap="butt" transform="matrix(0.749108, -0.0365601, 0.0365601, 0.749108, 130.814878, 147.752657)" fill="none" stroke-linejoin="miter" d="M 2.803435 55.000588 C 2.42812 54.997914 2.101022 54.862016 1.817194 54.587437 C 1.533621 54.307656 1.393297 53.977507 1.395717 53.607393 L 1.39279 43.517129 C 1.392039 43.105145 1.533393 42.773099 1.816853 42.520992 C 2.101074 42.253278 2.430716 42.12336 2.800829 42.125779 L 27.997496 42.124868 C 28.404279 42.123863 28.73963 41.983794 28.9934 41.69895 C 29.257575 41.414615 29.388017 41.092466 29.390183 40.727554 C 29.389685 40.310367 29.255072 39.970067 28.991038 39.717313 C 28.737915 39.454661 28.405361 39.323712 27.993631 39.319261 L 12.824548 39.3194 C 10.618711 39.32125 8.650788 38.828901 6.931185 37.842862 C 5.217038 36.851875 3.864766 35.497888 2.868913 33.78585 C 1.883973 32.063915 1.395526 30.105485 1.393422 27.904849 L 1.391925 21.631693 C 1.395277 19.42611 1.887118 17.468591 2.872903 15.75419 C 3.864145 14.034841 5.218385 12.677367 6.929662 11.697121 C 8.652105 10.701776 10.616245 10.203179 12.821828 10.206531 L 44.792072 10.207688 C 45.204057 10.206936 45.536611 10.337886 45.794935 10.600791 C 46.058462 10.86395 46.187873 11.203996 46.188878 11.610779 L 46.187365 21.685182 C 46.189894 22.060752 46.059198 22.388103 45.795023 22.672439 C 45.536558 22.946624 45.206663 23.081745 44.794678 23.082496 L 19.603214 23.083661 C 19.227898 23.080988 18.898002 23.216109 18.619237 23.478874 C 18.335269 23.741385 18.193661 24.078633 18.194413 24.490618 C 18.191739 24.865934 18.337518 25.191135 18.615636 25.475864 C 18.899717 25.745241 19.226561 25.886341 19.602131 25.883812 L 34.776415 25.883927 C 36.971849 25.881569 38.923911 26.378358 40.637804 27.374548 C 42.362609 28.360841 43.715135 29.709625 44.700076 31.43156 C 45.690472 33.148547 46.189323 35.107485 46.191173 37.313322 L 46.18823 43.570618 C 46.19008 45.776456 45.692529 47.744124 44.701288 49.463474 C 43.715503 51.177875 42.361516 52.530146 40.639073 53.525491 C 38.927796 54.505737 36.969112 54.999386 34.773679 55.001744 Z M 2.803435 55.000588 " stroke="#231f20" stroke-width="11.269819" stroke-opacity="1" stroke-miterlimit="4"/><path stroke-linecap="butt" transform="matrix(0.749983, -0.00507976, 0.00507976, 0.749983, 167.526569, 146.049379)" fill="none" stroke-linejoin="miter" d="M 2.857738 55.001659 C 2.482746 54.999119 2.145129 54.861412 1.844887 54.588539 C 1.544716 54.30525 1.395865 53.981317 1.393196 53.606291 L 1.396349 11.615761 C 1.393928 11.204277 1.536842 10.866696 1.819885 10.602981 C 2.102928 10.339267 2.426754 10.206041 2.801781 10.203373 L 16.744806 10.204059 C 17.156255 10.206846 17.499115 10.339379 17.768178 10.601625 C 18.052866 10.863975 18.196403 11.203497 18.193617 11.614946 L 18.193555 23.927729 C 18.196224 24.302756 18.334623 24.631826 18.61917 24.91501 C 18.898579 25.187742 19.225779 25.325378 19.600806 25.322709 C 20.012255 25.325496 20.346533 25.187132 20.598397 24.91279 C 20.865921 24.633346 20.998384 24.300902 20.99568 23.931083 L 20.995777 11.613092 C 20.998564 11.201643 21.131062 10.863991 21.408897 10.600241 C 21.686731 10.336492 22.015766 10.203301 22.390757 10.205841 L 36.333782 10.206527 C 36.745266 10.204106 37.088127 10.336639 37.372779 10.604199 C 37.652259 10.866514 37.795831 11.200828 37.798253 11.612312 L 37.795065 53.60805 C 37.797769 53.977868 37.665341 54.305104 37.397782 54.589756 C 37.135501 54.864028 36.796015 55.002357 36.389774 54.999605 L 22.446749 54.998919 C 22.082139 55.001658 21.74973 54.863987 21.449488 54.591113 C 21.144109 54.307788 20.995293 53.978648 20.997833 53.603657 L 20.997541 41.342955 C 20.995085 40.936679 20.862035 40.586812 20.598321 40.303769 C 20.345023 40.020797 20.012614 39.883126 19.601165 39.880339 C 19.226139 39.883007 18.902312 40.016234 18.61927 40.279948 C 18.336297 40.533245 18.193418 40.865619 18.195839 41.277103 L 18.195672 53.605511 C 18.193132 53.980502 18.060705 54.307738 17.798354 54.592426 C 17.541317 54.861524 17.212247 54.999924 16.800763 55.002345 Z M 2.857738 55.001659 " stroke="#231f20" stroke-width="11.269819" stroke-opacity="1" stroke-miterlimit="4"/><path stroke-linecap="butt" transform="matrix(0.749251, 0.0335155, -0.0335155, 0.749251, 208.714678, 146.073785)" fill="none" stroke-linejoin="miter" d="M 2.856749 55.000784 C 2.481425 55.001933 2.146878 54.865705 1.847905 54.592334 C 1.543263 54.308789 1.393086 53.98184 1.391938 53.606517 L 1.395363 21.63171 C 1.39577 19.426364 1.886969 17.470167 2.868493 15.752715 C 3.865626 14.034564 5.217953 12.681113 6.93091 11.697333 C 8.653808 10.70268 10.617814 10.202957 12.82316 10.203364 L 26.368126 10.207454 C 28.573472 10.207862 30.535105 10.704031 32.247819 11.696194 C 33.970475 12.677485 35.324159 14.035015 36.308172 15.753175 C 37.297155 17.4659 37.796879 19.429906 37.796472 21.635252 L 37.798017 53.604623 C 37.793962 53.980179 37.662705 54.30929 37.399042 54.592189 C 37.134913 54.864681 36.79686 54.999714 36.390317 55.002259 L 22.444013 55.000481 C 22.079096 55.001164 21.749752 54.864703 21.445575 54.591565 C 21.146137 54.307787 20.995959 53.980838 20.994811 53.605515 L 20.995697 45.816443 C 20.998123 45.404465 20.862857 45.061208 20.600538 44.791411 C 20.342724 44.505772 20.013148 44.364108 19.601402 44.366886 C 19.225846 44.362831 18.898199 44.497399 18.617995 44.760183 C 18.337559 45.017764 18.195895 45.34734 18.19347 45.759319 L 18.195144 53.605625 C 18.196292 53.980948 18.059599 54.305089 17.795936 54.587987 C 17.542446 54.865217 17.209596 55.000018 16.797618 54.997592 Z M 19.599741 30.926449 C 20.011719 30.928874 20.344337 30.788871 20.597594 30.506438 C 20.86646 30.223307 20.997717 29.894196 20.996569 29.518872 L 20.994824 25.050944 C 20.997249 24.638966 20.862216 24.300913 20.60013 24.036319 C 20.34348 23.776695 20.014137 23.640234 19.602391 23.643012 C 19.227067 23.64416 18.899187 23.773525 18.618984 24.036309 C 18.33381 24.304529 18.192379 24.639309 18.195157 25.051054 L 18.191699 29.519215 C 18.192847 29.894538 18.337821 30.22172 18.616447 30.506428 C 18.900044 30.785701 19.22962 30.927364 19.599741 30.926449 Z M 19.599741 30.926449 " stroke="#231f20" stroke-width="11.269819" stroke-opacity="1" stroke-miterlimit="4"/><path stroke-linecap="butt" transform="matrix(0.747183, 0.0649401, -0.0649401, 0.747183, 239.14184, 147.39103)" fill="none" stroke-linejoin="miter" d="M 2.85475 55.000513 C 2.483641 55.0014 2.147506 54.863319 1.846796 54.591461 C 1.545184 54.309225 1.396078 53.977138 1.395191 53.60603 L 1.394742 11.615026 C 1.395437 11.201956 1.533517 10.865821 1.81891 10.60053 C 2.099114 10.33569 2.427816 10.207791 2.804113 10.206453 L 34.772927 10.203994 C 36.968897 10.20657 38.925262 10.700488 40.637733 11.696577 C 42.35968 12.681386 43.716143 14.032551 44.697194 15.756161 C 45.69291 17.468042 46.187336 19.427382 46.190851 21.633279 L 46.187197 27.907158 C 46.18981 30.102678 45.691154 32.064682 44.701156 33.78708 C 43.715444 35.49865 42.363829 36.849923 40.641571 37.846541 C 38.928338 38.826691 36.968998 39.321117 34.773478 39.32373 L 19.65909 39.319921 C 19.282793 39.321258 18.944165 39.455249 18.642755 39.716704 C 18.346082 39.972519 18.192435 40.310007 18.192192 40.728266 L 18.19254 53.604722 C 18.193877 53.98102 18.060084 54.306326 17.79725 54.590568 C 17.543892 54.863531 17.210903 55.002259 16.797833 55.001565 Z M 19.59966 25.88398 L 27.995965 25.886146 C 28.403395 25.882102 28.736835 25.748563 28.995382 25.475149 C 29.258216 25.190907 29.392009 24.8656 29.390672 24.489303 C 29.391818 24.081422 29.257827 23.742794 28.99434 23.478156 C 28.736042 23.213067 28.405546 23.079724 27.992927 23.084219 L 19.601811 23.081602 C 19.230702 23.082488 18.902451 23.215577 18.617058 23.480868 C 18.336403 23.740519 18.193585 24.082294 18.192439 24.490175 C 18.193326 24.861283 18.337243 25.193821 18.617649 25.472672 C 18.897605 25.746335 19.228551 25.884866 19.59966 25.88398 Z M 19.59966 25.88398 " stroke="#231f20" stroke-width="11.269819" stroke-opacity="1" stroke-miterlimit="4"/><path stroke-linecap="butt" transform="matrix(0.743401, 0.0992719, -0.0992719, 0.743401, 275.857398, 150.608925)" fill="none" stroke-linejoin="miter" d="M 2.854905 55.002504 C 2.481473 54.999825 2.147594 54.860501 1.843633 54.591072 C 1.542765 54.305466 1.394015 53.978528 1.396694 53.605096 L 1.395495 11.610757 C 1.393348 11.201187 1.537835 10.866619 1.817942 10.603268 C 2.103211 10.339227 2.427054 10.206654 2.799797 10.20417 L 34.774129 10.206359 C 36.970663 10.207295 38.928438 10.702516 40.637128 11.693401 C 42.360617 12.677056 43.713158 14.030774 44.699913 15.753867 C 45.690452 17.465946 46.188869 19.427652 46.189312 21.634511 L 46.191603 27.908158 C 46.190667 30.104692 45.690283 32.063156 44.701466 33.787334 C 43.716433 35.500497 42.362714 36.853038 40.640311 37.844956 C 38.927542 38.830333 36.97031 39.322898 34.773776 39.321962 L 19.656516 39.32293 C 19.283084 39.320251 18.943753 39.454892 18.642307 39.715839 C 18.345334 39.970933 18.196374 40.311353 18.194048 40.726775 L 18.1956 53.605511 C 18.192921 53.978943 18.063232 54.306281 17.796208 54.588903 C 17.543982 54.864295 17.209814 54.998247 16.800244 55.000394 Z M 19.601161 25.883885 L 27.992525 25.882545 C 28.402784 25.885561 28.736263 25.746447 28.994341 25.475528 C 29.256203 25.193595 29.391054 24.865568 29.387881 24.487663 C 29.390896 24.077404 29.256944 23.743235 28.990499 23.479306 C 28.739541 23.213308 28.406351 23.079146 27.996781 23.081293 L 19.600254 23.083322 C 19.226822 23.080643 18.897817 23.213906 18.61771 23.477257 C 18.337603 23.740608 18.193806 24.080339 18.195953 24.489908 C 18.193274 24.86334 18.336862 25.190967 18.61639 25.474169 C 18.899701 25.746355 19.228418 25.886369 19.601161 25.883885 Z M 19.601161 25.883885 " stroke="#231f20" stroke-width="11.269819" stroke-opacity="1" stroke-miterlimit="4"/><g fill="#ffffff" fill-opacity="1"><g transform="translate(69.509144, 196.220712)"><g><path d="M 9.546875 -1.28125 C 7.898438 -1.050781 6.390625 -1.21875 5.015625 -1.78125 C 3.640625 -2.351562 2.492188 -3.226562 1.578125 -4.40625 C 0.671875 -5.59375 0.109375 -7 -0.109375 -8.625 L -2.28125 -24.953125 C -2.5 -26.585938 -2.320312 -28.09375 -1.75 -29.46875 C -1.1875 -30.84375 -0.316406 -31.976562 0.859375 -32.875 C 2.035156 -33.78125 3.445312 -34.347656 5.09375 -34.578125 L 28.84375 -37.75 C 29.15625 -37.789062 29.421875 -37.726562 29.640625 -37.5625 C 29.859375 -37.394531 29.988281 -37.160156 30.03125 -36.859375 L 31.25 -27.75 C 31.289062 -27.46875 31.226562 -27.203125 31.0625 -26.953125 C 30.894531 -26.703125 30.65625 -26.554688 30.34375 -26.515625 L 11.625 -24.015625 C 11.34375 -23.972656 11.109375 -23.84375 10.921875 -23.625 C 10.742188 -23.40625 10.675781 -23.140625 10.71875 -22.828125 L 11.890625 -14.09375 C 11.929688 -13.8125 12.066406 -13.582031 12.296875 -13.40625 C 12.535156 -13.226562 12.796875 -13.160156 13.078125 -13.203125 L 31.796875 -15.703125 C 32.109375 -15.742188 32.375 -15.675781 32.59375 -15.5 C 32.8125 -15.332031 32.941406 -15.097656 32.984375 -14.796875 L 34.203125 -5.671875 C 34.234375 -5.398438 34.164062 -5.140625 34 -4.890625 C 33.84375 -4.640625 33.609375 -4.492188 33.296875 -4.453125 Z M 9.546875 -1.28125 "/></g></g></g><g fill="#ffffff" fill-opacity="1"><g transform="translate(104.227278, 191.637176)"><g><path d="M 2.125 -0.1875 C 1.851562 -0.164062 1.59375 -0.25 1.34375 -0.4375 C 1.101562 -0.625 0.972656 -0.859375 0.953125 -1.140625 L -1.21875 -25.015625 C -1.375 -26.671875 -1.140625 -28.171875 -0.515625 -29.515625 C 0.109375 -30.867188 1.023438 -31.96875 2.234375 -32.8125 C 3.453125 -33.664062 4.882812 -34.171875 6.53125 -34.328125 L 16.65625 -35.25 C 18.300781 -35.394531 19.796875 -35.160156 21.140625 -34.546875 C 22.492188 -33.929688 23.597656 -33.015625 24.453125 -31.796875 C 25.304688 -30.578125 25.8125 -29.140625 25.96875 -27.484375 L 28.140625 -3.609375 C 28.160156 -3.328125 28.082031 -3.070312 27.90625 -2.84375 C 27.738281 -2.625 27.5 -2.5 27.1875 -2.46875 L 16.78125 -1.53125 C 16.5 -1.5 16.234375 -1.578125 15.984375 -1.765625 C 15.742188 -1.953125 15.613281 -2.1875 15.59375 -2.46875 L 15.0625 -8.28125 C 15.03125 -8.582031 14.90625 -8.832031 14.6875 -9.03125 C 14.476562 -9.226562 14.222656 -9.3125 13.921875 -9.28125 C 13.640625 -9.257812 13.398438 -9.140625 13.203125 -8.921875 C 13.015625 -8.703125 12.9375 -8.441406 12.96875 -8.140625 L 13.5 -2.28125 C 13.519531 -2 13.441406 -1.742188 13.265625 -1.515625 C 13.097656 -1.296875 12.859375 -1.171875 12.546875 -1.140625 Z M 13 -19.3125 C 13.300781 -19.34375 13.539062 -19.46875 13.71875 -19.6875 C 13.90625 -19.914062 13.984375 -20.171875 13.953125 -20.453125 L 13.65625 -23.796875 C 13.625 -24.109375 13.5 -24.351562 13.28125 -24.53125 C 13.070312 -24.707031 12.816406 -24.78125 12.515625 -24.75 C 12.234375 -24.726562 11.992188 -24.609375 11.796875 -24.390625 C 11.609375 -24.179688 11.53125 -23.921875 11.5625 -23.609375 L 11.859375 -20.265625 C 11.890625 -19.984375 12.015625 -19.75 12.234375 -19.5625 C 12.460938 -19.375 12.71875 -19.289062 13 -19.3125 Z M 13 -19.3125 "/></g></g></g><g fill="#ffffff" fill-opacity="1"><g transform="translate(132.825683, 188.953616)"><g><path d="M 2.09375 -0.109375 C 1.820312 -0.0859375 1.570312 -0.175781 1.34375 -0.375 C 1.125 -0.570312 1.007812 -0.8125 1 -1.09375 L 0.625 -8.640625 C 0.613281 -8.953125 0.707031 -9.207031 0.90625 -9.40625 C 1.113281 -9.613281 1.351562 -9.726562 1.625 -9.75 L 20.5 -10.671875 C 20.8125 -10.679688 21.054688 -10.796875 21.234375 -11.015625 C 21.421875 -11.242188 21.507812 -11.492188 21.5 -11.765625 C 21.476562 -12.078125 21.363281 -12.328125 21.15625 -12.515625 C 20.957031 -12.703125 20.703125 -12.789062 20.390625 -12.78125 L 9.03125 -12.21875 C 7.375 -12.132812 5.882812 -12.429688 4.5625 -13.109375 C 3.25 -13.785156 2.1875 -14.75 1.375 -16 C 0.570312 -17.25 0.132812 -18.695312 0.0625 -20.34375 L -0.171875 -25.046875 C -0.253906 -26.703125 0.0390625 -28.191406 0.71875 -29.515625 C 1.40625 -30.835938 2.367188 -31.894531 3.609375 -32.6875 C 4.859375 -33.488281 6.3125 -33.929688 7.96875 -34.015625 L 31.90625 -35.1875 C 32.21875 -35.195312 32.476562 -35.109375 32.6875 -34.921875 C 32.894531 -34.742188 33.003906 -34.503906 33.015625 -34.203125 L 33.390625 -26.640625 C 33.398438 -26.359375 33.3125 -26.109375 33.125 -25.890625 C 32.9375 -25.671875 32.6875 -25.554688 32.375 -25.546875 L 13.515625 -24.625 C 13.234375 -24.613281 12.992188 -24.503906 12.796875 -24.296875 C 12.597656 -24.097656 12.507812 -23.84375 12.53125 -23.53125 C 12.539062 -23.25 12.65625 -23.007812 12.875 -22.8125 C 13.09375 -22.613281 13.34375 -22.519531 13.625 -22.53125 L 24.984375 -23.078125 C 26.640625 -23.160156 28.128906 -22.863281 29.453125 -22.1875 C 30.773438 -21.507812 31.835938 -20.546875 32.640625 -19.296875 C 33.441406 -18.046875 33.882812 -16.59375 33.96875 -14.9375 L 34.1875 -10.234375 C 34.269531 -8.597656 33.972656 -7.113281 33.296875 -5.78125 C 32.617188 -4.457031 31.65625 -3.394531 30.40625 -2.59375 C 29.15625 -1.789062 27.703125 -1.347656 26.046875 -1.265625 Z M 2.09375 -0.109375 "/></g></g></g><g fill="#ffffff" fill-opacity="1"><g transform="translate(167.805956, 187.298429)"><g><path d="M 2.140625 -0.015625 C 1.859375 -0.015625 1.601562 -0.113281 1.375 -0.3125 C 1.15625 -0.519531 1.046875 -0.765625 1.046875 -1.046875 L 0.828125 -32.546875 C 0.828125 -32.859375 0.929688 -33.113281 1.140625 -33.3125 C 1.347656 -33.507812 1.585938 -33.609375 1.859375 -33.609375 L 12.328125 -33.671875 C 12.628906 -33.679688 12.890625 -33.585938 13.109375 -33.390625 C 13.328125 -33.203125 13.4375 -32.953125 13.4375 -32.640625 L 13.5 -23.40625 C 13.5 -23.125 13.601562 -22.878906 13.8125 -22.671875 C 14.019531 -22.460938 14.265625 -22.359375 14.546875 -22.359375 C 14.847656 -22.367188 15.097656 -22.476562 15.296875 -22.6875 C 15.492188 -22.894531 15.59375 -23.140625 15.59375 -23.421875 L 15.53125 -32.65625 C 15.53125 -32.96875 15.628906 -33.21875 15.828125 -33.40625 C 16.035156 -33.601562 16.28125 -33.703125 16.5625 -33.703125 L 27.03125 -33.78125 C 27.332031 -33.78125 27.585938 -33.679688 27.796875 -33.484375 C 28.015625 -33.296875 28.125 -33.046875 28.125 -32.734375 L 28.34375 -1.234375 C 28.34375 -0.953125 28.242188 -0.707031 28.046875 -0.5 C 27.859375 -0.289062 27.609375 -0.1875 27.296875 -0.1875 L 16.84375 -0.109375 C 16.5625 -0.109375 16.304688 -0.210938 16.078125 -0.421875 C 15.859375 -0.628906 15.75 -0.875 15.75 -1.15625 L 15.6875 -10.359375 C 15.675781 -10.660156 15.570312 -10.914062 15.375 -11.125 C 15.175781 -11.34375 14.925781 -11.445312 14.625 -11.4375 C 14.34375 -11.4375 14.097656 -11.335938 13.890625 -11.140625 C 13.679688 -10.941406 13.582031 -10.691406 13.59375 -10.390625 L 13.65625 -1.140625 C 13.65625 -0.859375 13.554688 -0.613281 13.359375 -0.40625 C 13.160156 -0.195312 12.90625 -0.0859375 12.59375 -0.078125 Z M 2.140625 -0.015625 "/></g></g></g><g fill="#ffffff" fill-opacity="1"><g transform="translate(196.784184, 187.21835)"><g/></g></g><g fill="#ffffff" fill-opacity="1"><g transform="translate(206.871324, 187.282573)"><g><path d="M 2.140625 0.09375 C 1.859375 0.0820312 1.609375 -0.03125 1.390625 -0.25 C 1.179688 -0.46875 1.082031 -0.71875 1.09375 -1 L 2.171875 -24.953125 C 2.242188 -26.609375 2.679688 -28.0625 3.484375 -29.3125 C 4.285156 -30.570312 5.34375 -31.539062 6.65625 -32.21875 C 7.976562 -32.90625 9.460938 -33.207031 11.109375 -33.125 L 21.265625 -32.671875 C 22.921875 -32.597656 24.375 -32.160156 25.625 -31.359375 C 26.875 -30.566406 27.835938 -29.507812 28.515625 -28.1875 C 29.203125 -26.875 29.507812 -25.390625 29.4375 -23.734375 L 28.359375 0.21875 C 28.347656 0.5 28.238281 0.738281 28.03125 0.9375 C 27.832031 1.132812 27.578125 1.226562 27.265625 1.21875 L 16.828125 0.75 C 16.546875 0.738281 16.296875 0.625 16.078125 0.40625 C 15.867188 0.1875 15.769531 -0.0625 15.78125 -0.34375 L 16.046875 -6.1875 C 16.054688 -6.488281 15.96875 -6.75 15.78125 -6.96875 C 15.59375 -7.1875 15.347656 -7.300781 15.046875 -7.3125 C 14.765625 -7.320312 14.515625 -7.234375 14.296875 -7.046875 C 14.078125 -6.867188 13.960938 -6.628906 13.953125 -6.328125 L 13.6875 -0.4375 C 13.675781 -0.15625 13.566406 0.0820312 13.359375 0.28125 C 13.148438 0.476562 12.890625 0.570312 12.578125 0.5625 Z M 15.5 -17.390625 C 15.800781 -17.378906 16.050781 -17.472656 16.25 -17.671875 C 16.457031 -17.867188 16.570312 -18.109375 16.59375 -18.390625 L 16.734375 -21.75 C 16.753906 -22.0625 16.664062 -22.316406 16.46875 -22.515625 C 16.28125 -22.710938 16.035156 -22.816406 15.734375 -22.828125 C 15.453125 -22.835938 15.203125 -22.753906 14.984375 -22.578125 C 14.773438 -22.398438 14.660156 -22.15625 14.640625 -21.84375 L 14.5 -18.484375 C 14.476562 -18.203125 14.566406 -17.953125 14.765625 -17.734375 C 14.972656 -17.515625 15.21875 -17.398438 15.5 -17.390625 Z M 15.5 -17.390625 "/></g></g></g><g fill="#ffffff" fill-opacity="1"><g transform="translate(235.570137, 188.486104)"><g><path d="M 2.125 0.1875 C 1.851562 0.164062 1.613281 0.0390625 1.40625 -0.1875 C 1.195312 -0.414062 1.109375 -0.671875 1.140625 -0.953125 L 3.859375 -32.328125 C 3.890625 -32.640625 4.019531 -32.882812 4.25 -33.0625 C 4.476562 -33.238281 4.722656 -33.3125 4.984375 -33.28125 L 28.890625 -31.21875 C 30.535156 -31.070312 31.96875 -30.570312 33.1875 -29.71875 C 34.40625 -28.863281 35.328125 -27.765625 35.953125 -26.421875 C 36.585938 -25.078125 36.835938 -23.582031 36.703125 -21.9375 L 36.296875 -17.25 C 36.148438 -15.601562 35.644531 -14.171875 34.78125 -12.953125 C 33.925781 -11.734375 32.828125 -10.8125 31.484375 -10.1875 C 30.140625 -9.5625 28.644531 -9.320312 27 -9.46875 L 15.6875 -10.4375 C 15.425781 -10.46875 15.175781 -10.390625 14.9375 -10.203125 C 14.695312 -10.023438 14.5625 -9.78125 14.53125 -9.46875 L 13.703125 0.140625 C 13.671875 0.421875 13.546875 0.65625 13.328125 0.84375 C 13.117188 1.03125 12.859375 1.113281 12.546875 1.09375 Z M 16.53125 -20.5 L 22.8125 -19.953125 C 23.125 -19.921875 23.382812 -20 23.59375 -20.1875 C 23.800781 -20.382812 23.921875 -20.617188 23.953125 -20.890625 C 23.972656 -21.203125 23.894531 -21.460938 23.71875 -21.671875 C 23.550781 -21.878906 23.3125 -22 23 -22.03125 L 16.71875 -22.578125 C 16.445312 -22.597656 16.195312 -22.519531 15.96875 -22.34375 C 15.738281 -22.164062 15.613281 -21.921875 15.59375 -21.609375 C 15.5625 -21.335938 15.640625 -21.085938 15.828125 -20.859375 C 16.023438 -20.640625 16.257812 -20.519531 16.53125 -20.5 Z M 16.53125 -20.5 "/></g></g></g><g fill="#ffffff" fill-opacity="1"><g transform="translate(270.39744, 191.495977)"><g><path d="M 2.125 0.28125 C 1.84375 0.25 1.601562 0.113281 1.40625 -0.125 C 1.207031 -0.363281 1.128906 -0.617188 1.171875 -0.890625 L 5.34375 -32.125 C 5.382812 -32.425781 5.523438 -32.660156 5.765625 -32.828125 C 6.003906 -32.992188 6.257812 -33.054688 6.53125 -33.015625 L 30.296875 -29.84375 C 31.941406 -29.625 33.351562 -29.0625 34.53125 -28.15625 C 35.707031 -27.25 36.578125 -26.109375 37.140625 -24.734375 C 37.703125 -23.359375 37.875 -21.851562 37.65625 -20.21875 L 37.03125 -15.5625 C 36.8125 -13.914062 36.25 -12.503906 35.34375 -11.328125 C 34.4375 -10.148438 33.296875 -9.28125 31.921875 -8.71875 C 30.554688 -8.15625 29.050781 -7.984375 27.40625 -8.203125 L 16.171875 -9.703125 C 15.898438 -9.742188 15.640625 -9.679688 15.390625 -9.515625 C 15.140625 -9.347656 14.992188 -9.109375 14.953125 -8.796875 L 13.671875 0.78125 C 13.628906 1.050781 13.5 1.273438 13.28125 1.453125 C 13.0625 1.640625 12.796875 1.710938 12.484375 1.671875 Z M 17.46875 -19.703125 L 23.703125 -18.875 C 24.015625 -18.832031 24.28125 -18.898438 24.5 -19.078125 C 24.71875 -19.253906 24.847656 -19.484375 24.890625 -19.765625 C 24.929688 -20.078125 24.867188 -20.34375 24.703125 -20.5625 C 24.535156 -20.78125 24.296875 -20.910156 23.984375 -20.953125 L 17.75 -21.78125 C 17.46875 -21.820312 17.207031 -21.757812 16.96875 -21.59375 C 16.738281 -21.425781 16.601562 -21.1875 16.5625 -20.875 C 16.519531 -20.59375 16.585938 -20.335938 16.765625 -20.109375 C 16.953125 -19.878906 17.1875 -19.742188 17.46875 -19.703125 Z M 17.46875 -19.703125 "/></g></g></g><path stroke-linecap="butt" transform="matrix(1.064245, -0.174588, 0.174588, 1.064245, 66.387701, 198.88065)" fill="none" stroke-linejoin="miter" d="M 14.750466 13.000046 L 1.250798 12.998715 L 1.250819 1.789188 L 14.134181 1.788516 L 14.134106 4.563358 L 5.95308 4.56098 L 5.954583 6.319369 L 12.866082 6.319027 L 12.868009 8.477563 L 5.952936 8.477318 L 5.952038 10.227972 L 14.750541 10.225204 Z M 14.750466 13.000046 " stroke="#231f20" stroke-width="1.9" stroke-opacity="1" stroke-miterlimit="4"/><path stroke-linecap="butt" transform="matrix(1.068316, -0.147646, 0.147646, 1.068316, 83.008432, 196.147691)" fill="none" stroke-linejoin="miter" d="M 8.476843 13.24219 C 5.705131 13.243056 3.666896 12.672504 2.358551 11.530038 C 1.202971 10.525691 0.625043 9.151434 0.624768 7.407267 C 0.624493 5.6631 1.202663 4.28408 2.358783 3.273794 C 3.66749 2.138339 5.705659 1.571725 8.477371 1.570859 C 10.101153 1.568571 11.446129 1.758109 12.50661 2.127715 C 13.570183 2.501406 14.395671 3.010388 14.983074 3.654664 C 15.573569 4.303023 15.965212 5.040907 16.157011 5.875491 L 11.209823 5.875527 C 10.715646 5.006466 9.803407 4.569592 8.476197 4.568989 C 7.342618 4.569552 6.503543 4.899676 5.967139 5.553177 C 5.540268 6.075558 5.326922 6.693265 5.327102 7.406299 C 5.327283 8.119333 5.541658 8.737649 5.967137 9.257166 C 6.505417 9.912934 7.341347 10.240538 8.478018 10.244059 C 9.805723 10.241074 10.714485 9.803574 11.211974 8.928964 L 16.155575 8.928432 C 15.962708 9.768357 15.571164 10.511351 14.984529 11.15791 C 14.394802 11.800386 13.570896 12.311773 12.506629 12.683903 C 11.445949 13.05653 10.10013 13.24349 8.476843 13.24219 Z M 8.476843 13.24219 " stroke="#231f20" stroke-width="1.9" stroke-opacity="1" stroke-miterlimit="4"/><path stroke-linecap="butt" transform="matrix(1.071854, -0.119279, 0.119279, 1.071854, 101.20915, 193.634709)" fill="none" stroke-linejoin="miter" d="M 8.477294 13.241415 C 5.70739 13.242944 3.667958 12.673417 2.358998 11.532834 C 1.20321 10.522273 0.624265 9.142223 0.625362 7.396684 C 0.625658 5.658344 1.201471 4.28289 2.359602 3.274722 C 3.667351 2.133785 5.706177 1.562551 8.476081 1.561022 C 11.245584 1.563093 13.285016 2.13262 14.593976 3.273203 C 15.749764 4.283765 16.32911 5.660215 16.328814 7.398554 C 16.327717 9.144093 15.751903 10.519547 14.593372 11.531315 C 13.285623 12.672253 11.246797 13.243486 8.477294 13.241415 Z M 8.476605 10.23472 C 9.613766 10.233714 10.444592 9.907066 10.975884 9.259179 C 11.402759 8.73087 11.617257 8.113328 11.616578 7.398953 C 11.6159 6.684578 11.404012 6.066963 10.977316 5.545709 C 10.445446 4.888841 9.61073 4.562711 8.47717 4.564118 C 7.34041 4.561525 6.505583 4.891371 5.96989 5.546057 C 5.540217 6.066766 5.329319 6.684709 5.326398 7.398683 C 5.327076 8.113058 5.542563 8.731073 5.968459 9.259527 C 6.504729 9.909596 7.339445 10.235727 8.476605 10.23472 Z M 8.476605 10.23472 " stroke="#231f20" stroke-width="1.9" stroke-opacity="1" stroke-miterlimit="4"/><path stroke-linecap="butt" transform="matrix(1.073996, -0.0981367, 0.0981367, 1.073996, 119.588435, 191.63861)" fill="none" stroke-linejoin="miter" d="M 0.468692 6.50786 L 7.655782 6.506264 L 7.655901 8.375753 L 0.469142 8.373742 Z M 0.468692 6.50786 " stroke="#231f20" stroke-width="1.9" stroke-opacity="1" stroke-miterlimit="4"/><path stroke-linecap="butt" transform="matrix(1.075711, -0.0771011, 0.0771011, 1.075711, 128.51317, 190.779261)" fill="none" stroke-linejoin="miter" d="M 8.476388 13.242751 C 5.70561 13.243879 3.665795 12.672812 2.360555 11.529808 C 1.201601 10.524385 0.62466 9.150339 0.626119 7.40741 C 0.624224 5.66061 1.202355 4.282201 2.360512 3.272184 C 3.665534 2.138335 5.707177 1.569299 8.477696 1.571783 C 10.100885 1.571923 11.445843 1.755473 12.508438 2.129403 C 13.571291 2.499719 14.395406 3.009071 14.984396 3.657717 C 15.573644 4.30275 15.963648 5.042442 16.154667 5.87318 L 11.212324 5.874809 C 10.715516 5.003997 9.805964 4.572042 8.476962 4.571201 C 7.340471 4.569632 6.503506 4.898194 5.969938 5.553533 C 5.540401 6.074707 5.329158 6.691416 5.328724 7.406755 C 5.32855 8.118481 5.542072 8.736584 5.969548 9.257451 C 6.503569 9.913051 7.340631 10.241765 8.477122 10.243333 C 9.806383 10.240562 10.716405 9.804665 11.211319 8.928677 L 16.157015 8.930919 C 15.96275 9.766724 15.571868 10.508547 14.984367 11.156389 C 14.397126 11.800618 13.56889 12.311372 12.507404 12.681943 C 11.445658 13.056126 10.103191 13.243149 8.476388 13.242751 Z M 8.476388 13.242751 " stroke="#231f20" stroke-width="1.9" stroke-opacity="1" stroke-miterlimit="4"/><path stroke-linecap="butt" transform="matrix(1.077451, -0.0468772, 0.0468772, 1.077451, 146.855239, 189.452462)" fill="none" stroke-linejoin="miter" d="M 18.827115 13.001262 L 14.063295 13.000651 L 13.008445 11.163783 L 5.938784 11.164363 L 4.88367 13.000068 L 0.116232 12.9993 L 7.288956 1.796925 L 11.657562 1.798469 Z M 11.42153 8.390151 L 9.477492 4.991906 L 7.524131 8.390982 Z M 11.42153 8.390151 " stroke="#231f20" stroke-width="1.9" stroke-opacity="1" stroke-miterlimit="4"/><path stroke-linecap="butt" transform="matrix(1.078313, -0.0184236, 0.0184236, 1.078313, 167.542829, 188.586506)" fill="none" stroke-linejoin="miter" d="M 14.337079 12.99945 L 1.248768 13.000427 L 1.248332 1.788609 L 5.95402 1.789312 L 5.954773 10.226258 L 14.337335 10.228198 Z M 14.337079 12.99945 " stroke="#231f20" stroke-width="1.9" stroke-opacity="1" stroke-miterlimit="4"/><path stroke-linecap="butt" transform="matrix(1.078439, 0.00820917, -0.00820917, 1.078439, 183.594748, 188.301156)" fill="none" stroke-linejoin="miter" d="M 8.477872 13.242833 C 5.706936 13.242193 3.666949 12.670936 2.357939 11.532684 C 1.20207 10.527286 0.626546 9.151634 0.624122 7.405785 C 0.625321 5.659908 1.201623 4.282733 2.360273 3.274205 C 3.666457 2.137779 5.70503 1.571697 8.475939 1.568715 C 10.102292 1.570824 11.443893 1.756206 12.508011 2.12843 C 13.568507 2.500682 14.394598 3.008736 14.982691 3.656243 C 15.574405 4.303723 15.963981 5.043295 16.15504 5.874931 L 11.21084 5.876345 C 10.715208 5.003562 9.806364 4.56858 8.477063 4.571454 C 7.339697 4.569246 6.505486 4.897965 5.967161 5.554047 C 5.540094 6.075263 5.327466 6.692644 5.329276 7.40619 C 5.327463 8.119764 5.542249 8.737514 5.970012 9.259467 C 6.50383 9.914632 7.339409 10.241507 8.476775 10.243716 C 9.806076 10.240841 10.71552 9.802885 11.21235 8.929791 L 16.15655 8.928377 C 15.963713 9.766557 15.574575 10.512057 14.98546 11.157659 C 14.396345 11.80326 13.570729 12.309399 12.508669 12.683319 C 11.446608 13.057239 10.100576 13.241347 8.477872 13.242833 Z M 8.477872 13.242833 " stroke="#231f20" stroke-width="1.9" stroke-opacity="1" stroke-miterlimit="4"/><path stroke-linecap="butt" transform="matrix(1.077876, 0.0357897, -0.0357897, 1.077876, 201.957721, 188.451139)" fill="none" stroke-linejoin="miter" d="M 7.882831 13.243215 C 5.146702 13.243464 3.22515 12.673063 2.111176 11.539492 C 1.173473 10.584892 0.703773 9.208863 0.701955 7.407784 L 0.704128 1.797723 L 5.404479 1.797486 L 5.405926 7.407427 C 5.406428 8.186575 5.539323 8.805494 5.804371 9.256945 C 6.184751 9.907511 6.876976 10.236057 7.884427 10.235222 C 8.899118 10.234146 9.595048 9.910245 9.968356 9.256397 C 10.235453 8.787278 10.367181 8.170444 10.367159 7.405775 L 10.365713 1.795835 L 15.069684 1.795477 L 15.069554 7.467079 C 15.07005 9.228338 14.604099 10.584698 13.671821 11.53978 C 12.553451 12.674993 10.622581 13.242845 7.882831 13.243215 Z M 7.882831 13.243215 " stroke="#231f20" stroke-width="1.9" stroke-opacity="1" stroke-miterlimit="4"/><path stroke-linecap="butt" transform="matrix(1.076713, 0.0615425, -0.0615425, 1.076713, 219.20706, 189.034)" fill="none" stroke-linejoin="miter" d="M 14.336939 13.000428 L 1.250995 13.001036 L 1.248762 1.79083 L 5.954172 1.790347 L 5.953781 10.225329 L 14.334314 10.225204 Z M 14.336939 13.000428 " stroke="#231f20" stroke-width="1.9" stroke-opacity="1" stroke-miterlimit="4"/><path stroke-linecap="butt" transform="matrix(1.074714, 0.0899389, -0.0899389, 1.074714, 235.254863, 189.924144)" fill="none" stroke-linejoin="miter" d="M 18.828032 13.000977 L 14.062868 12.99994 L 13.007945 11.165472 L 5.938406 11.164643 L 4.881762 13.001355 L 0.116598 13.000318 L 7.288089 1.797774 L 11.656806 1.795641 Z M 11.423598 8.39031 L 9.478079 4.991128 L 7.523515 8.389572 Z M 11.423598 8.39031 " stroke="#231f20" stroke-width="1.9" stroke-opacity="1" stroke-miterlimit="4"/><path stroke-linecap="butt" transform="matrix(1.071987, 0.118082, -0.118082, 1.071987, 255.883552, 191.686511)" fill="none" stroke-linejoin="miter" d="M 9.560778 12.998796 L 4.860139 12.999143 L 4.86013 4.563433 L 0.469082 4.562474 L 0.469708 1.78937 L 13.952443 1.790941 L 13.951817 4.564045 L 9.560768 4.563086 Z M 9.560778 12.998796 " stroke="#231f20" stroke-width="1.9" stroke-opacity="1" stroke-miterlimit="4"/><path stroke-linecap="butt" transform="matrix(1.06875, 0.144471, -0.144471, 1.06875, 271.599685, 193.403922)" fill="none" stroke-linejoin="miter" d="M 8.476754 13.242277 C 5.706026 13.240355 3.666446 12.671761 2.361117 11.532423 C 1.204415 10.519192 0.623651 9.14302 0.625519 7.399347 C 0.624282 5.659748 1.202216 4.28411 2.35932 3.272432 C 3.667464 2.134344 5.706415 1.562671 8.476658 1.561004 C 11.247385 1.562926 13.286965 2.13152 14.592779 3.274448 C 15.748996 4.284089 16.32976 5.660261 16.327407 7.400345 C 16.329129 9.143533 15.751195 10.519171 14.594091 11.530849 C 13.286432 12.672527 11.246996 13.24061 8.476754 13.242277 Z M 8.475853 10.234358 C 9.612529 10.234214 10.445839 9.909581 10.975297 9.25687 C 11.404937 8.730956 11.617074 8.110175 11.615783 7.39763 C 11.618082 6.6846 11.402983 6.066747 10.978151 5.546689 C 10.443691 4.891597 9.613264 4.5616 8.476588 4.561744 C 7.339912 4.561888 6.503497 4.890596 5.967346 5.547867 C 5.540325 6.066117 5.327703 6.683308 5.329479 7.399443 C 5.32718 8.112473 5.542279 8.730326 5.968081 9.257562 C 6.505646 9.90858 7.342766 10.234017 8.475853 10.234358 Z M 8.475853 10.234358 " stroke="#231f20" stroke-width="1.9" stroke-opacity="1" stroke-miterlimit="4"/><path stroke-linecap="butt" transform="matrix(1.064492, 0.173079, -0.173079, 1.064492, 289.994193, 195.891873)" fill="none" stroke-linejoin="miter" d="M 16.555059 12.998264 L 12.10755 12.998489 C 11.907988 12.719022 11.761732 12.361164 11.679509 11.923173 C 11.605831 11.582872 11.496983 11.251959 11.352384 10.926858 C 11.207785 10.601758 10.954596 10.331009 10.596393 10.114031 C 10.241765 9.896472 9.709283 9.781222 9.009673 9.766538 L 5.952577 9.764537 L 5.954033 13.00088 L 1.249293 12.998894 L 1.250286 1.788128 L 8.897807 1.788686 C 10.72528 1.788788 12.200884 1.926833 13.324037 2.199245 C 14.447189 2.471658 15.266023 2.903638 15.779376 3.488036 C 16.296885 4.075428 16.552889 4.837444 16.5557 5.780072 C 16.555548 6.569059 16.376673 7.229313 16.019655 7.764409 C 15.663219 8.30308 15.097045 8.725399 14.329448 9.037354 C 15.073148 9.345776 15.555199 9.715088 15.779175 10.144709 C 15.999577 10.574911 16.135251 11.048247 16.185618 11.56114 C 16.238572 12.022237 16.360527 12.501473 16.555059 12.998264 Z M 5.954606 7.001004 L 8.639574 6.993789 C 9.391647 6.992603 9.980692 6.959212 10.413858 6.892451 C 10.846443 6.822116 11.165381 6.729893 11.370091 6.612208 C 11.575383 6.498098 11.708098 6.366432 11.765242 6.221366 C 11.822967 6.079875 11.850348 5.932309 11.851541 5.781661 C 11.852734 5.631014 11.82117 5.482023 11.764581 5.337102 C 11.70741 5.188605 11.576325 5.059465 11.370163 4.942532 C 11.164001 4.825599 10.847593 4.730261 10.414952 4.664831 C 9.981729 4.595826 9.389371 4.563703 8.640291 4.560732 L 5.954161 4.560797 Z M 5.954606 7.001004 " stroke="#231f20" stroke-width="1.9" stroke-opacity="1" stroke-miterlimit="4"/><g fill="#ffffff" fill-opacity="1"><g transform="translate(68.65735, 212.715836)"><g><path d="M 15.703125 -2.578125 L 1.328125 -0.21875 L -0.625 -12.15625 L 13.078125 -14.40625 L 13.5625 -11.4375 L 4.875 -10.015625 L 5.171875 -8.15625 L 12.515625 -9.359375 L 12.890625 -7.0625 L 5.546875 -5.859375 L 5.859375 -3.984375 L 15.21875 -5.515625 Z M 15.703125 -2.578125 "/></g></g></g><g fill="#ffffff" fill-opacity="1"><g transform="translate(84.927824, 210.035802)"><g><path d="M 9.078125 -0.984375 C 6.117188 -0.578125 3.859375 -0.882812 2.296875 -1.90625 C 0.921875 -2.8125 0.101562 -4.195312 -0.15625 -6.0625 C -0.414062 -7.9375 -0.00390625 -9.492188 1.078125 -10.734375 C 2.304688 -12.148438 4.398438 -13.0625 7.359375 -13.46875 C 9.097656 -13.707031 10.5625 -13.703125 11.75 -13.453125 C 12.945312 -13.210938 13.90625 -12.789062 14.625 -12.1875 C 15.351562 -11.59375 15.878906 -10.863281 16.203125 -10 L 10.9375 -9.265625 C 10.257812 -10.128906 9.210938 -10.460938 7.796875 -10.265625 C 6.585938 -10.097656 5.75 -9.617188 5.28125 -8.828125 C 4.90625 -8.210938 4.769531 -7.519531 4.875 -6.75 C 4.976562 -5.988281 5.296875 -5.363281 5.828125 -4.875 C 6.492188 -4.25 7.429688 -4.019531 8.640625 -4.1875 C 10.054688 -4.382812 10.972656 -4.988281 11.390625 -6 L 16.65625 -6.734375 C 16.570312 -5.804688 16.265625 -4.953125 15.734375 -4.171875 C 15.203125 -3.390625 14.394531 -2.722656 13.3125 -2.171875 C 12.226562 -1.617188 10.816406 -1.222656 9.078125 -0.984375 Z M 9.078125 -0.984375 "/></g></g></g><g fill="#ffffff" fill-opacity="1"><g transform="translate(102.759783, 207.568811)"><g><path d="M 9.109375 -0.75 C 6.140625 -0.414062 3.890625 -0.78125 2.359375 -1.84375 C 0.992188 -2.800781 0.207031 -4.21875 0 -6.09375 C -0.207031 -7.957031 0.25 -9.492188 1.375 -10.703125 C 2.632812 -12.078125 4.75 -12.929688 7.71875 -13.265625 C 10.695312 -13.585938 12.953125 -13.21875 14.484375 -12.15625 C 15.835938 -11.226562 16.617188 -9.832031 16.828125 -7.96875 C 17.035156 -6.09375 16.582031 -4.535156 15.46875 -3.296875 C 14.207031 -1.921875 12.085938 -1.070312 9.109375 -0.75 Z M 8.75 -3.984375 C 9.96875 -4.117188 10.816406 -4.5625 11.296875 -5.3125 C 11.703125 -5.9375 11.863281 -6.632812 11.78125 -7.40625 C 11.695312 -8.15625 11.390625 -8.785156 10.859375 -9.296875 C 10.222656 -9.929688 9.296875 -10.179688 8.078125 -10.046875 C 6.859375 -9.910156 6 -9.460938 5.5 -8.703125 C 5.113281 -8.085938 4.960938 -7.40625 5.046875 -6.65625 C 5.128906 -5.882812 5.425781 -5.238281 5.9375 -4.71875 C 6.59375 -4.09375 7.53125 -3.847656 8.75 -3.984375 Z M 8.75 -3.984375 "/></g></g></g><g fill="#ffffff" fill-opacity="1"><g transform="translate(120.864212, 205.600561)"><g><path d="M 0.046875 -5.015625 L -0.140625 -7.015625 L 7.578125 -7.71875 L 7.765625 -5.71875 Z M 0.046875 -5.015625 "/></g></g></g><g fill="#ffffff" fill-opacity="1"><g transform="translate(129.515484, 204.763503)"><g><path d="M 9.140625 -0.390625 C 6.148438 -0.171875 3.914062 -0.628906 2.4375 -1.765625 C 1.101562 -2.742188 0.367188 -4.175781 0.234375 -6.0625 C 0.0976562 -7.945312 0.617188 -9.472656 1.796875 -10.640625 C 3.109375 -11.960938 5.257812 -12.734375 8.25 -12.953125 C 9.988281 -13.078125 11.441406 -12.976562 12.609375 -12.65625 C 13.785156 -12.34375 14.710938 -11.859375 15.390625 -11.203125 C 16.078125 -10.554688 16.554688 -9.796875 16.828125 -8.921875 L 11.515625 -8.53125 C 10.898438 -9.4375 9.882812 -9.835938 8.46875 -9.734375 C 7.238281 -9.640625 6.363281 -9.21875 5.84375 -8.46875 C 5.425781 -7.875 5.242188 -7.191406 5.296875 -6.421875 C 5.359375 -5.648438 5.640625 -5 6.140625 -4.46875 C 6.753906 -3.8125 7.675781 -3.53125 8.90625 -3.625 C 10.320312 -3.726562 11.269531 -4.265625 11.75 -5.234375 L 17.0625 -5.625 C 16.914062 -4.707031 16.550781 -3.878906 15.96875 -3.140625 C 15.394531 -2.398438 14.546875 -1.785156 13.421875 -1.296875 C 12.304688 -0.816406 10.878906 -0.515625 9.140625 -0.390625 Z M 9.140625 -0.390625 "/></g></g></g><g fill="#ffffff" fill-opacity="1"><g transform="translate(147.464643, 203.459328)"><g><path d="M 20.28125 -0.875 L 15.140625 -0.65625 L 13.921875 -2.59375 L 6.3125 -2.265625 L 5.265625 -0.234375 L 0.125 0 L 7.328125 -12.40625 L 12.015625 -12.609375 Z M 12.078125 -5.5 L 9.828125 -9.0625 L 7.890625 -5.328125 Z M 12.078125 -5.5 "/></g></g></g><g fill="#ffffff" fill-opacity="1"><g transform="translate(167.782336, 202.604577)"><g><path d="M 15.453125 -0.265625 L 1.34375 -0.015625 L 1.140625 -12.109375 L 6.21875 -12.203125 L 6.375 -3.09375 L 15.40625 -3.25 Z M 15.453125 -0.265625 "/></g></g></g><g fill="#ffffff" fill-opacity="1"><g transform="translate(183.488029, 202.320867)"><g><path d="M 9.140625 0.328125 C 6.148438 0.304688 3.957031 -0.320312 2.5625 -1.5625 C 1.320312 -2.65625 0.707031 -4.144531 0.71875 -6.03125 C 0.726562 -7.914062 1.363281 -9.394531 2.625 -10.46875 C 4.039062 -11.6875 6.242188 -12.285156 9.234375 -12.265625 C 10.984375 -12.242188 12.425781 -12.03125 13.5625 -11.625 C 14.707031 -11.21875 15.59375 -10.660156 16.21875 -9.953125 C 16.851562 -9.253906 17.273438 -8.457031 17.484375 -7.5625 L 12.15625 -7.59375 C 11.613281 -8.539062 10.628906 -9.019531 9.203125 -9.03125 C 7.972656 -9.03125 7.070312 -8.679688 6.5 -7.984375 C 6.03125 -7.421875 5.796875 -6.753906 5.796875 -5.984375 C 5.785156 -5.210938 6.007812 -4.546875 6.46875 -3.984375 C 7.03125 -3.265625 7.925781 -2.90625 9.15625 -2.90625 C 10.582031 -2.894531 11.570312 -3.359375 12.125 -4.296875 L 17.453125 -4.265625 C 17.234375 -3.359375 16.800781 -2.554688 16.15625 -1.859375 C 15.519531 -1.171875 14.628906 -0.628906 13.484375 -0.234375 C 12.335938 0.160156 10.890625 0.347656 9.140625 0.328125 Z M 9.140625 0.328125 "/></g></g></g><g fill="#ffffff" fill-opacity="1"><g transform="translate(201.492455, 202.463533)"><g><path d="M 8.484375 0.546875 C 5.535156 0.453125 3.484375 -0.226562 2.328125 -1.5 C 1.359375 -2.550781 0.90625 -4.050781 0.96875 -6 L 1.171875 -12.046875 L 6.234375 -11.890625 L 6.03125 -5.84375 C 6 -5 6.125 -4.328125 6.40625 -3.828125 C 6.78125 -3.109375 7.507812 -2.734375 8.59375 -2.703125 C 9.6875 -2.660156 10.453125 -2.984375 10.890625 -3.671875 C 11.179688 -4.171875 11.34375 -4.832031 11.375 -5.65625 L 11.578125 -11.703125 L 16.640625 -11.546875 L 16.4375 -5.4375 C 16.375 -3.53125 15.816406 -2.082031 14.765625 -1.09375 C 13.523438 0.09375 11.429688 0.640625 8.484375 0.546875 Z M 8.484375 0.546875 "/></g></g></g><g fill="#ffffff" fill-opacity="1"><g transform="translate(218.407007, 203.03127)"><g><path d="M 15.421875 0.875 L 1.34375 0.078125 L 2.03125 -12 L 7.09375 -11.71875 L 6.578125 -2.625 L 15.59375 -2.109375 Z M 15.421875 0.875 "/></g></g></g><g fill="#ffffff" fill-opacity="1"><g transform="translate(234.085657, 203.895421)"><g><path d="M 20.21875 1.6875 L 15.109375 1.265625 L 14.15625 -0.8125 L 6.5625 -1.453125 L 5.25 0.4375 L 0.125 0.015625 L 8.828125 -11.375 L 13.515625 -10.984375 Z M 12.6875 -3.921875 L 10.90625 -7.75 L 8.5 -4.28125 Z M 12.6875 -3.921875 "/></g></g></g><g fill="#ffffff" fill-opacity="1"><g transform="translate(254.348489, 205.622337)"><g><path d="M 10.25 1.125 L 5.203125 0.578125 L 6.203125 -8.453125 L 1.5 -8.96875 L 1.828125 -11.953125 L 16.28125 -10.375 L 15.953125 -7.390625 L 11.25 -7.90625 Z M 10.25 1.125 "/></g></g></g><g fill="#ffffff" fill-opacity="1"><g transform="translate(269.721565, 207.297673)"><g><path d="M 9.03125 1.484375 C 6.0625 1.085938 3.96875 0.1875 2.75 -1.21875 C 1.65625 -2.46875 1.234375 -4.03125 1.484375 -5.90625 C 1.734375 -7.757812 2.550781 -9.140625 3.9375 -10.046875 C 5.488281 -11.078125 7.75 -11.394531 10.71875 -11 C 13.675781 -10.59375 15.769531 -9.6875 17 -8.28125 C 18.09375 -7.039062 18.515625 -5.492188 18.265625 -3.640625 C 18.015625 -1.765625 17.195312 -0.367188 15.8125 0.546875 C 14.25 1.578125 11.988281 1.890625 9.03125 1.484375 Z M 9.46875 -1.734375 C 10.675781 -1.566406 11.609375 -1.796875 12.265625 -2.421875 C 12.804688 -2.921875 13.128906 -3.554688 13.234375 -4.328125 C 13.335938 -5.078125 13.191406 -5.757812 12.796875 -6.375 C 12.328125 -7.15625 11.488281 -7.628906 10.28125 -7.796875 C 9.0625 -7.953125 8.117188 -7.71875 7.453125 -7.09375 C 6.929688 -6.601562 6.617188 -5.984375 6.515625 -5.234375 C 6.410156 -4.460938 6.546875 -3.765625 6.921875 -3.140625 C 7.398438 -2.359375 8.25 -1.890625 9.46875 -1.734375 Z M 9.46875 -1.734375 "/></g></g></g><g fill="#ffffff" fill-opacity="1"><g transform="translate(287.744166, 209.730263)"><g><path d="M 17.609375 2.859375 L 12.890625 2.09375 C 12.722656 1.757812 12.632812 1.351562 12.625 0.875 C 12.59375 0.5 12.523438 0.125 12.421875 -0.25 C 12.328125 -0.625 12.109375 -0.957031 11.765625 -1.25 C 11.429688 -1.539062 10.894531 -1.75 10.15625 -1.875 L 6.90625 -2.40625 L 6.34375 1.03125 L 1.328125 0.21875 L 3.265625 -11.71875 L 11.40625 -10.390625 C 13.351562 -10.078125 14.898438 -9.675781 16.046875 -9.1875 C 17.203125 -8.707031 18 -8.109375 18.4375 -7.390625 C 18.882812 -6.679688 19.023438 -5.828125 18.859375 -4.828125 C 18.722656 -3.992188 18.414062 -3.320312 17.9375 -2.8125 C 17.46875 -2.300781 16.800781 -1.9375 15.9375 -1.71875 C 16.675781 -1.28125 17.128906 -0.8125 17.296875 -0.3125 C 17.460938 0.175781 17.523438 0.703125 17.484375 1.265625 C 17.441406 1.765625 17.484375 2.296875 17.609375 2.859375 Z M 7.375 -5.359375 L 10.234375 -4.90625 C 11.035156 -4.78125 11.671875 -4.710938 12.140625 -4.703125 C 12.609375 -4.703125 12.960938 -4.742188 13.203125 -4.828125 C 13.453125 -4.921875 13.613281 -5.035156 13.6875 -5.171875 C 13.769531 -5.316406 13.828125 -5.472656 13.859375 -5.640625 C 13.878906 -5.796875 13.875 -5.957031 13.84375 -6.125 C 13.8125 -6.289062 13.691406 -6.453125 13.484375 -6.609375 C 13.285156 -6.773438 12.960938 -6.925781 12.515625 -7.0625 C 12.066406 -7.207031 11.441406 -7.34375 10.640625 -7.46875 L 7.796875 -7.9375 Z M 7.375 -5.359375 "/></g></g></g></svg>