<svg width="589" height="451" viewBox="0 0 589 451" fill="none" xmlns="http://www.w3.org/2000/svg">
<g clip-path="url(#clip0_95_2611)">
<path d="M383.997 185.068C382.71 185.256 381.399 185.156 380.154 184.775C378.909 184.395 377.762 183.742 376.793 182.864C375.825 181.986 375.057 180.903 374.546 179.693C374.035 178.482 373.792 177.172 373.834 175.856L344.33 164.373L357.689 154.694L383.658 167.083C385.837 167.302 387.861 168.323 389.346 169.952C390.832 171.582 391.675 173.706 391.717 175.924C391.758 178.141 390.995 180.296 389.573 181.982C388.15 183.667 386.166 184.766 383.996 185.068L383.997 185.068Z" fill="#FFB7B7"/>
<path d="M367.137 176.83L371.744 160.372L371.518 160.216L328.366 130.528L291.064 92.6204L269.335 101.413L270.762 108.378L270.855 108.464L320.45 153.454L320.496 153.477L367.137 176.83Z" fill="#E6E7E8"/>
<path d="M322.932 214.422L256.149 204.941L262.027 163.438H311.193L322.932 214.422Z" fill="#FFB6B6"/>
<path d="M209.458 417.649L223.158 420.873L241.955 368.892L221.737 364.133L209.458 417.649Z" fill="#FFB6B6"/>
<path d="M196.712 439.987L206.536 442.299L210.445 433.318L212.781 443.769L238.837 449.901C240.086 450.195 241.395 450.077 242.573 449.565C243.751 449.052 244.736 448.171 245.385 447.051C246.034 445.931 246.312 444.63 246.179 443.338C246.046 442.046 245.509 440.832 244.646 439.871L227.178 420.419L229.357 410.922L207.168 407.094L196.712 439.987Z" fill="#2F2E41"/>
<path d="M293.986 425.381H308.05L314.743 370.438H293.986V425.381Z" fill="#FFB6B6"/>
<path d="M286.563 450.061H296.649L298.449 440.416L303.06 450.061H329.81C331.092 450.061 332.341 449.646 333.374 448.876C334.407 448.107 335.17 447.023 335.551 445.783C335.933 444.543 335.913 443.212 335.495 441.985C335.077 440.757 334.282 439.697 333.227 438.959L311.865 424.017V414.267L289.396 415.625L286.563 450.061Z" fill="#2F2E41"/>
<path d="M255.305 197.899L320.615 192.637C339.888 238.233 327.633 311.022 312.823 392.962L291.816 395.712L290.187 264.045L237.527 386.535L215.633 385.402L255.305 197.899Z" fill="#2F2E41"/>
<path d="M293.321 77.8314V55.4531C293.323 51.514 292.559 47.6131 291.072 43.9732C289.585 40.3334 287.404 37.0259 284.655 34.2398C281.905 31.4537 278.641 29.2436 275.048 27.7357C271.454 26.2278 267.603 25.4517 263.714 25.4517C259.825 25.4517 255.973 26.2278 252.38 27.7357C248.787 29.2436 245.523 31.4537 242.773 34.2398C240.024 37.0259 237.843 40.3334 236.356 43.9732C234.869 47.6131 234.105 51.514 234.106 55.4531C228.888 66.4664 232.153 71.7025 234.106 77.8314C234.108 78.8987 234.528 79.9218 235.273 80.6764C236.018 81.4311 237.028 81.8559 238.082 81.8576H289.344C290.398 81.8564 291.409 81.4318 292.154 80.6771C292.9 79.9224 293.319 78.8991 293.321 77.8314Z" fill="#2F2E41"/>
<path d="M271.02 81.5203C283.009 81.5203 292.728 71.6772 292.728 59.535C292.728 47.3929 283.009 37.5498 271.02 37.5498C259.032 37.5498 249.313 47.3929 249.313 59.535C249.313 71.6772 259.032 81.5203 271.02 81.5203Z" fill="#FFB7B7"/>
<path d="M300.325 57.2428C300.318 50.954 297.848 44.9247 293.458 40.4778C289.067 36.0309 283.114 33.5295 276.905 33.5225H272.485C266.276 33.5296 260.323 36.0309 255.932 40.4778C251.542 44.9247 249.072 50.954 249.065 57.2428V57.6906C252.375 59.9822 255.517 60.3173 258.404 57.6906L261.589 48.6573L262.226 57.6905H267.053L268.662 53.1332L268.984 57.6906C275.504 63.3143 287.833 60.6194 300.325 57.6906L300.325 57.2428Z" fill="#2F2E41"/>
<path d="M258.363 175.569L313.631 173.439L316.721 136.819C319.103 130.116 319.142 124.357 316.835 119.713C314.851 115.896 311.518 112.978 307.502 111.543L295.408 96.749C293.852 94.8476 291.899 93.32 289.689 92.2766C287.479 91.2331 285.068 90.6999 282.63 90.7154L251.206 90.933C250.449 90.4719 245.854 88.1069 236.793 92.0834C226.966 96.3972 229.248 111.384 229.272 111.535L229.295 111.676L229.403 111.772L250.304 129.602L258.363 175.569Z" fill="#E6E7E8"/>
<path d="M0.927284 451H555.866C556.112 451 556.348 450.901 556.522 450.725C556.696 450.549 556.794 450.31 556.794 450.061C556.794 449.812 556.696 449.573 556.522 449.397C556.348 449.221 556.112 449.122 555.866 449.122H0.927284C0.681355 449.122 0.4455 449.221 0.271602 449.397C0.0977037 449.573 0 449.812 0 450.061C0 450.31 0.0977037 450.549 0.271602 450.725C0.4455 450.901 0.681355 451 0.927284 451Z" fill="#CCCCCC"/>
<path d="M404.987 228.721C404.946 250.054 397.027 270.6 382.786 286.319C368.546 302.039 349.015 311.795 328.033 313.669C307.051 315.543 286.135 309.4 269.399 296.447C252.662 283.495 241.314 264.67 237.587 243.673C233.859 222.677 238.022 201.027 249.256 182.981C260.49 164.936 277.983 151.799 298.295 146.153C318.608 140.508 340.271 142.762 359.026 152.473C377.78 162.184 392.27 178.65 399.646 198.632C399.83 199.134 400.009 199.636 400.184 200.142V200.147C400.962 202.374 401.648 204.643 402.241 206.952C404.07 214.06 404.993 221.376 404.987 228.721Z" fill="#3F3D56"/>
<path d="M310.76 170.683C306.943 168.592 302.705 167.412 298.37 167.233C294.034 167.053 289.715 167.878 285.742 169.646C282.244 171.188 278.561 173.954 277.394 178.948C282.114 176.127 288.223 180.584 289.437 187.734L289.154 187.814C288.512 192.766 289.944 198.158 292.717 201.229C292.923 199.843 293.431 198.521 294.204 197.36C294.978 196.198 295.997 195.225 297.188 194.512C299.225 193.156 301.478 192.171 303.033 189.84C304.876 187.076 305.344 183.038 306.076 179.354C306.808 175.669 308.197 171.709 310.76 170.683Z" fill="#00FF00"/>
<path d="M284.342 212.826C283.035 214.814 281.289 216.061 279.723 217.615C277.914 219.281 276.728 221.527 276.363 223.975C276.165 225.705 276.472 227.464 276.429 229.213C276.387 230.962 275.811 232.931 274.636 233.366C272.782 234.045 271.366 230.556 269.46 230.312C267.945 230.121 266.582 232.535 267.02 234.628C267.459 236.721 269.521 237.648 270.706 236.281C271.777 238.102 271.022 241.404 269.413 241.964C269.243 243.11 269.073 244.253 268.908 245.4C264.84 242.518 260.731 239.588 257.272 235.369C253.425 230.715 251.039 225.004 250.42 218.967C249.972 214.116 250.637 208.568 248.439 204.836C246.679 201.849 243.659 201.189 240.941 201.376C240.445 201.409 239.945 201.466 239.45 201.528C241.053 196.653 243.088 191.934 245.532 187.43C246.085 187.19 246.599 186.866 247.056 186.47C249.585 184.295 250.708 179.894 252.761 176.85C252.893 176.654 253.03 176.462 253.171 176.276C255.271 173.499 258.083 172.071 260.801 170.742C266.817 167.784 273.008 164.787 279.359 165.198L277.552 165.375C275.443 171.358 273.332 177.342 271.22 183.325C270.899 184.243 270.575 185.162 270.248 186.083C269.049 189.485 267.813 193.108 267.997 196.917C268.106 199.172 268.879 201.581 270.352 202.355C271.725 203.072 273.225 202.193 274.551 201.323C275.113 200.96 275.67 200.596 276.231 200.228C278.246 198.914 280.478 197.567 282.606 198.446C284.555 199.249 285.994 201.93 286.267 204.821C286.518 207.632 285.841 210.447 284.342 212.826Z" fill="#00FF00"/>
<path d="M296.326 253.676C290.441 250.006 284.556 246.336 278.672 242.667L278.772 242.406C275.113 243.818 273.594 250.405 274.199 255.791C274.803 261.178 276.854 265.993 277.889 271.242C279.286 278.424 278.759 285.855 276.363 292.761C284.101 283.968 290.948 274.411 296.804 264.234C297.622 262.951 298.245 261.551 298.653 260.081C299.085 258.515 298.931 256.842 298.22 255.383C297.739 254.663 297.087 254.076 296.326 253.676Z" fill="#00FF00"/>
<path d="M273.101 186.915C272.41 188.418 272.304 190.129 272.803 191.708C273.384 192.98 274.437 193.968 275.733 194.457L278.985 196.089C280.067 196.632 281.233 197.18 282.335 196.734C283.665 196.195 284.587 194.083 284.349 192.122C284.095 190.036 282.797 188.601 281.596 187.379C279.915 185.669 278.235 183.959 276.554 182.249L275.607 183.423C274.583 184.435 273.736 185.616 273.101 186.915Z" fill="#00FF00"/>
<path d="M387.557 209.218C389.019 209.567 390.482 209.916 391.945 210.264C391.69 215.268 389.241 219.899 385.957 221.576C384.589 222.274 383.065 222.532 381.932 223.837C380.908 225.022 380.389 226.867 379.912 228.63C379.077 231.708 378.242 234.785 377.407 237.863C376.51 241.18 375.359 244.864 373.028 246.059C371.027 247.087 368.739 245.83 367.201 243.722C365.662 241.615 364.723 238.781 363.813 236.018C363.869 239.029 362.487 241.983 360.529 243.029C358.566 244.076 356.178 243.13 354.866 240.793C353.923 239.115 353.531 236.903 352.606 235.201C351.681 233.5 349.742 232.525 348.732 234.121C348.067 235.182 348.152 236.807 347.821 238.155C347.655 239.049 347.218 239.869 346.57 240.501C345.922 241.132 345.096 241.543 344.207 241.677C343.389 241.658 342.584 241.471 341.84 241.126C341.096 240.782 340.429 240.288 339.88 239.674C336.99 236.681 335.109 232.839 334.506 228.697C334.096 226.711 334.148 224.657 334.657 222.695C335.237 220.836 336.638 219.402 338.03 219.756C338.946 217.796 337.139 215.196 335.511 215.426C333.878 215.655 332.599 217.428 331.259 218.79C329.924 220.152 328.055 221.141 326.71 219.789C326.741 220.284 326.575 220.77 326.251 221.141C325.927 221.513 325.471 221.739 324.982 221.769C324.934 221.772 324.886 221.773 324.837 221.772C323.943 221.512 323.112 221.066 322.398 220.463C319.316 218.518 315.405 219.808 313.215 223.488C314.584 217.591 316.589 210.824 320.793 209.438C322.511 208.869 324.384 209.337 326.007 208.353C328.881 206.609 329.461 200.018 326.979 197.299C327.296 199.87 327.234 202.871 325.894 204.63C324.554 206.389 321.742 205.242 321.912 202.642C321.874 203.008 321.722 203.352 321.479 203.625C321.236 203.898 320.914 204.086 320.559 204.163C320.204 204.239 319.834 204.2 319.502 204.05C319.171 203.9 318.894 203.648 318.713 203.33C317.821 201.954 317.896 199.703 318.529 198.059C319.18 196.57 320.115 195.225 321.279 194.102C323.521 191.669 325.795 189.208 328.39 187.679C330.99 186.15 333.991 185.633 336.596 187.153C337.969 187.956 339.177 189.294 340.579 190.001C340.908 190.208 341.274 190.348 341.657 190.411C342.039 190.475 342.43 190.461 342.807 190.372C343.185 190.282 343.541 190.119 343.856 189.89C344.171 189.661 344.438 189.371 344.642 189.038C344.658 189.012 344.673 188.986 344.688 188.96C345.731 187.105 345.24 184.353 345.627 182.035C346.321 177.939 350.365 176.023 352.606 178.728C350.931 178.293 349.199 180.3 348.992 182.733C348.779 185.165 349.992 187.622 351.615 188.358C354.343 189.581 357.013 186.503 359.075 183.655C361.227 180.673 363.382 177.692 365.54 174.713C365.884 174.206 366.271 173.73 366.696 173.289C367.372 172.622 368.273 172.24 369.216 172.221C370.16 172.201 371.076 172.545 371.778 173.184C373.958 174.986 374.982 178.68 376.77 181.222C379.365 184.917 383.249 185.815 386.863 186.532C389.557 187.062 392.253 187.596 394.951 188.133C396.749 191.521 398.317 195.029 399.646 198.632C394.699 200.917 390.503 204.591 387.557 209.218Z" fill="#00FF00"/>
<path d="M402.241 206.953C401.688 208.603 401.386 210.329 401.344 212.071C399.032 209.213 398.664 203.856 400.183 200.147C400.962 202.374 401.648 204.643 402.241 206.953Z" fill="#00FF00"/>
<path d="M396.267 266.719C394.245 270.876 391.894 274.861 389.236 278.633C387.538 277.897 385.712 279.211 384.121 280.444C382.46 281.734 380.464 282.991 378.761 281.816C377.02 280.611 376.458 277.242 377.01 274.571C377.645 272.106 378.755 269.793 380.276 267.765C381.691 265.624 383.206 263.402 385.174 262.571C387.146 261.739 389.68 262.915 390.255 265.753L391.652 265.706C390.869 264.616 391.279 262.36 392.332 261.964C393.544 261.5 394.597 263.187 395.314 264.678C395.635 265.352 395.96 266.031 396.267 266.719Z" fill="#00FF00"/>
<path d="M342.775 246.533C339.772 246.724 337.394 242.981 335.814 239.298C334.234 235.616 332.792 231.405 330.083 229.531C328.536 228.46 326.771 228.313 325.092 227.794C324.14 227.55 323.259 227.08 322.522 226.423C321.784 225.766 321.213 224.94 320.853 224.014L318.949 223.235C316.285 224.583 313.846 226.345 311.719 228.456C309.288 231.071 307.774 234.423 307.41 237.996C307.047 241.856 308.39 246.161 310.9 247.612C312.883 248.758 315.192 248.035 317.201 249.084C319.711 250.395 321.202 254.202 321.766 257.962C322.33 261.721 322.187 265.628 322.59 269.43C322.994 273.232 324.106 277.188 326.408 279.137C329.289 281.575 333.516 279.549 334.808 275.111C335.442 272.934 335.42 270.477 335.894 268.217C336.729 264.237 338.982 261.284 340.769 258.02C342.556 254.755 343.963 250.321 342.775 246.533Z" fill="#00FF00"/>
<path d="M313.109 207.425C313.389 207.686 313.65 207.967 313.891 208.266C314.14 208.701 314.267 209.196 314.258 209.699C314.25 210.201 314.106 210.692 313.843 211.118C314.204 211.097 314.558 211 314.881 210.834C315.204 210.668 315.489 210.436 315.719 210.152C316.267 209.52 316.749 208.832 317.157 208.1C317.349 207.849 317.486 207.56 317.559 207.251C317.633 206.943 317.64 206.622 317.581 206.31C317.439 205.9 317.104 205.725 316.869 205.417C316.543 204.814 316.321 204.16 316.211 203.481C316.081 202.846 315.778 202.26 315.337 201.789C314.895 201.318 314.333 200.981 313.713 200.815L313.864 200.845C313.608 200.998 313.405 201.23 313.286 201.506C313.166 201.782 313.134 202.089 313.195 202.384C313.286 202.981 313.665 203.476 313.627 204.084C313.573 204.959 312.71 205.369 312.657 206.244C312.648 206.683 312.811 207.107 313.109 207.425Z" fill="#00FF00"/>
<path d="M307.966 192.562L307.979 192.56C308.071 192.475 308.157 192.382 308.235 192.283L307.966 192.562Z" fill="#00FF00"/>
<path d="M308.866 196.668C309.227 196.347 309.493 195.933 309.637 195.469C309.781 195.006 309.796 194.511 309.681 194.039C309.463 193.045 308.691 192.376 307.979 192.56C307.772 192.772 307.516 192.927 307.234 193.012C306.952 193.096 306.653 193.106 306.366 193.041C305.926 192.926 305.443 192.631 305.061 192.966C304.843 193.217 304.69 193.52 304.616 193.846C304.475 194.285 304.334 194.724 304.192 195.164C304.125 195.321 304.108 195.495 304.142 195.663C304.169 195.73 304.213 195.789 304.269 195.834C304.325 195.88 304.392 195.909 304.463 195.921C305.31 196.174 306.158 196.427 307.006 196.68C307.298 196.816 307.616 196.886 307.937 196.884C308.259 196.882 308.576 196.808 308.866 196.668Z" fill="#00FF00"/>
<path d="M372.869 253.346C372.478 252.696 372.086 252.047 371.694 251.397C371.309 250.644 370.783 249.975 370.145 249.427C370.006 249.309 369.847 249.221 369.675 249.166C369.503 249.111 369.322 249.091 369.142 249.107C368.963 249.124 368.788 249.175 368.628 249.26C368.468 249.344 368.326 249.46 368.211 249.6L368.19 249.625L368.238 249.996C369.287 251.135 370.002 252.549 370.303 254.077C370.392 254.741 370.361 255.428 370.44 256.095C370.448 256.404 370.516 256.709 370.641 256.992C370.765 257.274 370.944 257.529 371.166 257.742C371.783 258.159 372.507 257.543 372.946 256.792C373.339 256.175 373.515 255.442 373.446 254.712C373.349 254.221 373.152 253.757 372.869 253.346Z" fill="#00FF00"/>
<path d="M379.017 254.192C379.092 253.584 379.043 252.966 378.874 252.378C378.846 251.581 379.054 250.795 379.472 250.12C379.888 249.483 380.202 248.784 380.405 248.049C380.49 247.714 380.475 247.361 380.36 247.035C380.23 246.74 379.916 246.605 379.736 246.839L380.122 247.091C379.601 246.997 379.066 247.023 378.557 247.168C378.266 247.28 378.006 247.462 377.8 247.698C377.593 247.934 377.446 248.216 377.37 248.522C377.307 248.998 377.202 249.469 377.059 249.927C376.829 250.406 376.384 250.565 376.104 250.986C375.913 251.358 375.817 251.773 375.824 252.193C375.83 252.613 375.94 253.024 376.143 253.39C376.495 253.989 377.053 254.434 377.711 254.639C378.182 254.81 378.802 254.819 379.017 254.192Z" fill="#00FF00"/>
<path d="M389.966 257.538C390.136 257.986 390.364 258.41 390.644 258.799C391.168 259.333 391.88 259.005 392.516 258.875C393.093 258.783 393.684 258.85 394.226 259.07C394.769 259.291 395.242 259.655 395.596 260.126C395.349 258.88 394.811 257.713 394.027 256.722C393.242 255.73 392.234 254.944 391.088 254.429C389.598 253.907 388.027 253.658 386.451 253.695L386.182 253.765C386.868 255.788 389.023 255.742 389.966 257.538Z" fill="#00FF00"/>
<path d="M343.596 261.675L343.6 261.684L343.678 261.531L343.596 261.675Z" fill="#00FF00"/>
<path d="M341.935 264.931C341.573 265.597 341.261 266.29 341.003 267.004C340.661 268.16 340.435 269.349 340.328 270.551C340.243 271.235 340.217 272.108 340.64 272.441C340.762 272.523 340.908 272.557 341.053 272.537C341.197 272.517 341.33 272.444 341.425 272.333C341.66 272.081 341.852 271.792 341.994 271.477C342.825 270.027 343.47 268.476 343.914 266.86C344.378 265.147 344.267 263.327 343.6 261.684C343.045 262.766 342.49 263.848 341.935 264.931Z" fill="#00FF00"/>
<path d="M325.912 178.185C326.176 178.446 326.51 178.623 326.872 178.695C327.234 178.766 327.609 178.729 327.95 178.587C328.657 178.274 329.306 177.84 329.868 177.305C330.333 176.956 330.727 176.52 331.03 176.02C331.197 175.722 331.303 175.393 331.344 175.052C331.385 174.712 331.359 174.367 331.268 174.036C331.138 173.72 330.93 173.442 330.665 173.23C330.399 173.017 330.085 172.876 329.751 172.821C328.81 172.538 327.869 172.256 326.928 171.973L327.609 171.352C326.908 170.971 326.133 171.678 325.696 172.552C325.415 173.124 325.219 173.734 325.115 174.363C324.966 175.02 324.96 175.703 325.098 176.363C325.236 177.023 325.513 177.644 325.912 178.185Z" fill="#00FF00"/>
<path d="M342.526 172.536C342.791 172.832 343.158 173.015 343.551 173.047C343.945 173.079 344.336 172.959 344.645 172.71C344.911 172.508 345.132 172.251 345.293 171.956C345.455 171.662 345.553 171.336 345.582 171.001C345.649 170.251 345.283 169.418 344.76 169.353L344.88 168.651C343.873 168.467 342.633 168.43 342.094 169.668C341.912 170.143 341.856 170.657 341.932 171.16C342.008 171.664 342.213 172.138 342.526 172.536Z" fill="#00FF00"/>
<path d="M243.343 247.656C242.375 246.776 241.61 245.692 241.101 244.48C240.592 243.269 240.352 241.959 240.396 240.643C240.441 239.327 240.77 238.037 241.36 236.864C241.95 235.69 242.787 234.662 243.811 233.852L233.605 203.554L249.506 207.737L256.753 235.866C257.984 237.7 258.508 239.928 258.225 242.127C257.943 244.327 256.873 246.345 255.219 247.798C253.565 249.252 251.442 250.041 249.252 250.015C247.063 249.989 244.958 249.15 243.339 247.657L243.343 247.656Z" fill="#FFB7B7"/>
<path d="M238.783 229.269L254.211 222.306L249.028 169.453L253.855 116.159L233.257 104.9L228.892 110.474V110.6L226.58 177.992L226.592 178.043L238.783 229.269Z" fill="#E6E7E8"/>
<path d="M475.13 386.765C466.406 382.702 456.997 377.915 446.901 372.404C394.685 343.894 330.476 299.419 266.1 247.171C201.726 194.924 144.876 141.146 106.024 95.7452C87.0985 73.6287 73.4659 54.6882 65.506 39.4494C57.0781 23.3163 55.3784 11.8836 60.4531 5.46957C70.34 -7.02585 102.538 4.22894 127.807 15.871L126.884 17.9278C92.1822 1.94 69.2082 -1.98236 62.1942 6.88268C53.2603 18.1734 69.8505 50.0229 107.71 94.2653C146.476 139.566 203.222 193.244 267.495 245.409C331.769 297.573 395.859 341.968 447.96 370.416C498.841 398.198 533.149 407.657 542.082 396.365C549.499 386.991 539.382 363.38 513.594 329.881L515.353 328.492C534.091 352.833 554.241 384.612 543.823 397.779C538.748 404.193 527.361 405.003 509.978 400.188C500.069 397.443 488.408 392.95 475.13 386.765Z" fill="#00FF00"/>
<path d="M141.081 234.422C117.03 223.221 95.0504 211.972 75.7997 200.963C50.6374 186.572 31.5142 173.371 18.9616 161.728C5.67175 149.399 0.278056 139.21 2.93031 131.442C8.0964 116.309 42.1564 115.953 69.8195 118.319L69.6314 120.571C31.6432 117.321 8.70379 121.444 5.03821 132.181C0.369692 145.855 26.561 170.208 76.8966 198.995C128.438 228.471 199.691 259.718 277.533 286.978C355.375 314.239 430.467 334.244 488.977 343.308C546.118 352.16 581.568 349.395 586.236 335.721C590.112 324.367 572.75 305.572 537.348 282.795L538.544 280.888C564.268 297.438 593.789 320.512 588.345 336.459C585.693 344.227 575.236 348.866 557.267 350.246C540.293 351.55 517.204 349.967 488.64 345.541C430 336.457 354.769 316.417 276.804 289.113C227.895 271.985 181.564 253.277 141.081 234.422Z" fill="#00FF00"/>
<path d="M177.57 119.435C184.75 119.435 190.57 113.54 190.57 106.268C190.57 98.9959 184.75 93.1008 177.57 93.1008C170.39 93.1008 164.569 98.9959 164.569 106.268C164.569 113.54 170.39 119.435 177.57 119.435Z" fill="#E6E6E6"/>
<path d="M433.821 280.145C438.216 280.145 441.779 276.536 441.779 272.085C441.779 267.633 438.216 264.024 433.821 264.024C429.425 264.024 425.862 267.633 425.862 272.085C425.862 276.536 429.425 280.145 433.821 280.145Z" fill="#FF6584"/>
<path d="M44.5991 350.897C51.7791 350.897 57.5996 345.002 57.5996 337.73C57.5996 330.458 51.7791 324.563 44.5991 324.563C37.4192 324.563 31.5986 330.458 31.5986 337.73C31.5986 345.002 37.4192 350.897 44.5991 350.897Z" fill="#E6E6E6"/>
</g>
<defs>
<clipPath id="clip0_95_2611">
<rect width="589" height="451" fill="white"/>
</clipPath>
</defs>
</svg>
